<svg width="461" height="539" viewBox="0 0 461 539" fill="none" xmlns="http://www.w3.org/2000/svg">
<path d="M271.367 285.561C274.147 291.541 277.257 297.361 280.667 303.001C282.657 306.291 285.157 313.531 290.287 312.041C292.167 311.491 293.647 310.071 295.057 308.711C302.077 301.921 309.317 295.371 316.777 289.071C354.497 257.181 397.137 231.131 426.347 190.271C430.717 184.151 435.427 178.721 438.837 171.841C443.617 162.181 448.647 152.801 452.167 142.571C458.697 123.571 461.177 103.321 459.957 83.2511C458.227 54.6511 448.977 26.4011 433.207 2.62115C432.227 1.15115 430.207 0.0411492 429.107 0.00114915C427.917 -0.0388508 425.807 0.971149 424.847 2.13115C421.577 6.07115 417.637 8.93115 414.037 12.4611C405.377 20.9611 396.507 28.4911 387.097 36.2411C358.447 59.8211 328.637 82.2211 303.757 109.951C287.137 128.481 273.317 147.931 264.907 171.561C256.727 194.531 253.907 219.431 257.897 243.551C260.307 258.071 265.167 272.231 271.367 285.551V285.561ZM274.807 206.351C274.917 204.421 275.097 202.501 275.357 200.591C280.137 165.951 302.727 137.381 326.117 112.831C336.057 102.391 349.897 90.2811 361.247 80.9711L396.317 52.2011C406.507 42.9511 416.747 34.8011 425.337 24.8211C424.747 25.5111 429.447 35.1711 429.917 36.3811C431.657 40.9111 433.327 45.4712 434.857 50.0712C437.897 59.2212 439.827 68.0011 440.567 77.6111C442.137 97.9711 440.627 118.701 433.777 138.061C429.637 149.781 423.867 160.881 417.007 171.231C414.917 174.391 412.717 177.481 410.447 180.511C381.337 219.221 340.237 244.631 303.487 275.111C299.717 278.231 296.797 282.431 292.227 284.491C291.457 284.841 291.007 284.641 290.627 283.911C286.717 276.471 282.747 268.901 280.917 260.631C278.717 250.661 276.877 240.631 275.897 230.461C275.147 222.611 274.367 214.331 274.807 206.321V206.351Z" fill="#D9DFBD"/>
<path d="M429.857 237.751C428.947 236.431 427.137 235.131 426.147 234.691C424.947 234.161 422.917 235.401 421.827 236.441C397.007 260.031 371.027 282.361 343.347 302.551L332.297 311.661C325.197 317.511 318.347 323.671 311.707 330.041C306.807 334.741 301.917 338.651 297.557 343.871C290.477 352.361 283.677 360.241 277.337 369.611C260.047 395.151 251.857 425.851 254.677 456.911C257.227 485.071 267.647 510.621 283.357 533.831C284.927 536.151 288.027 540.091 290.767 537.511L303.507 525.491L312.447 517.361L348.827 488.501L360.467 479.601L381.537 462.811C387.227 458.281 392.017 453.521 397.357 448.541C403.107 443.171 408.867 438.311 414.037 432.191C423.147 421.411 430.857 412.021 438.057 399.351C448.377 381.201 454.867 362.181 456.467 341.081L456.617 313.481L455.747 305.421C453.407 283.751 442.037 255.571 429.857 237.771V237.751ZM438.587 337.771C433.407 383.641 406.117 417.621 371.877 446.691C369.167 448.991 366.437 451.271 363.627 453.451L354.007 460.921L314.667 491.301C306.437 497.661 298.787 503.731 291.717 511.321C292.137 510.871 287.087 502.751 286.547 501.761C269.147 469.641 268.667 430.401 283.587 397.181C283.877 396.541 284.167 395.901 284.467 395.261C290.997 381.401 300.007 368.691 310.807 357.841L326.777 341.811L335.187 334.211L367.617 307.771L387.297 292.601L408.687 274.041C413.597 269.781 417.937 265.561 422.667 260.441C433.777 283.531 441.487 311.991 438.567 337.801L438.587 337.771Z" fill="#D9DFBD"/>
<path d="M270.407 339.751C270.397 337.841 268.687 335.511 266.917 333.471C265.757 332.131 264.567 330.921 263.827 330.031C252.627 316.681 244.627 301.501 236.087 286.411L219.627 250.051C206.477 222.111 191.737 194.051 170.927 170.971C141.347 138.161 99.5366 116.691 54.9266 116.401C50.2666 116.371 45.6566 116.671 41.0166 117.001C28.7466 117.861 1.71657 121.471 0.146573 127.041C-0.863427 130.641 3.62657 137.441 5.04657 140.491C8.30657 147.481 11.7866 154.371 15.0266 161.371C23.7566 180.221 30.4866 200.001 39.5966 218.671C48.1266 236.161 57.8266 253.171 68.2866 269.571C83.0566 292.751 100.897 313.261 123.687 328.881C163.417 356.111 216.977 365.361 261.967 345.881C264.937 344.591 270.427 343.291 270.407 339.751ZM196.207 338.281C177.527 336.191 159.267 329.851 143.367 320.141C130.537 312.301 116.917 301.381 107.277 290.191C97.7666 279.151 88.6566 268.051 81.2666 255.431L76.3866 247.101C62.4966 223.371 50.9866 199.011 40.3066 173.591C35.1866 161.411 30.7566 149.771 24.6266 138.431C27.3266 137.471 30.1666 136.921 33.0066 136.551C35.7866 136.181 38.5966 135.991 41.4066 135.941C44.6366 135.881 47.8666 135.901 51.0966 135.901C53.3166 135.901 55.5366 135.901 57.7666 135.901C60.8066 135.901 63.8466 135.971 66.8766 136.231C69.5766 136.461 72.2766 136.831 74.9466 137.291C77.7066 137.781 80.4566 138.371 83.1666 139.071C85.9566 139.781 88.7166 140.601 91.4566 141.501C94.2366 142.421 96.9866 143.421 99.7066 144.511C102.447 145.611 105.157 146.781 107.837 148.041C110.507 149.291 113.147 150.621 115.747 152.021C118.317 153.401 120.847 154.861 123.337 156.381C125.777 157.871 128.167 159.431 130.517 161.061C132.797 162.641 135.027 164.281 137.197 166.001C138.407 166.951 139.597 167.931 140.777 168.931C164.777 189.341 184.497 218.231 197.467 246.861L218.297 292.821C222.357 301.781 226.747 309.901 232.037 318.151C235.427 323.441 237.827 329.011 243.117 333.961C227.967 338.781 211.937 340.041 196.197 338.281H196.207Z" fill="#D9DFBD"/>
</svg>
