<svg width="219" height="226" viewBox="0 0 219 226" fill="none" xmlns="http://www.w3.org/2000/svg">
<mask id="path-1-outside-1_2137_882" maskUnits="userSpaceOnUse" x="-0.5" y="-0.5" width="220" height="227" fill="black">
<rect fill="white" x="-0.5" y="-0.5" width="220" height="227"/>
<path d="M191.079 38.076C151.607 -7.70035 82.6661 -12.3868 37.6697 28.0624C-10.803 71.6334 -11.6403 147.599 33.8346 193.473C75.3175 235.323 140.917 236.477 183.731 195.052C227.068 153.128 230.319 83.5767 191.079 38.076ZM155.45 210.05C127.573 224.609 94.2909 225.026 66.5783 211.518C11.2429 184.539 -10.9152 117.156 16.6105 62.6778C34.4327 27.4142 69.5836 4.92093 109.579 4.89112C150.74 4.86132 186.848 29.2173 203.863 65.9933C228.376 118.959 207.982 182.61 155.442 210.05H155.45Z"/>
<path d="M166.342 156.302C168.047 155.885 168.921 154.514 168.428 153.158C168.174 152.465 167.172 151.683 165.789 151.981C136.566 158.351 112.502 173.908 96.7056 199.255C95.6815 200.894 95.7039 202.145 96.8252 202.98C98.1484 203.971 99.5315 203.546 100.578 201.743C114.917 177.052 139.37 162.881 166.342 156.295V156.302Z"/>
<path d="M184.725 155.624C154.852 159.17 128.844 175.04 113.638 201.274C112.913 202.525 114.176 203.956 115.059 204.246C116.337 204.671 117.286 204.306 118.273 202.533C131.535 178.765 157.087 163.611 183.357 160.273C184.8 160.087 185.428 159.23 185.936 158.545C186.37 157.963 185.966 155.468 184.725 155.617V155.624Z"/>
<path d="M175.777 169.035C158.829 173.736 144.408 183.467 134.421 197.757C133.531 199.031 133.636 200.342 134.353 200.901C138.36 204.023 146.472 181.396 176.816 173.289C178.124 172.939 178.408 171.494 178.326 170.801C178.236 170.004 177.107 168.662 175.777 169.035Z"/>
<path d="M187.954 144.53L179.156 144.493L179.185 127.036C180.344 127.744 181.406 128.072 182.228 128.109C185.921 128.273 180.688 117.715 178.296 116.032L152.235 97.6734L125.951 116.486C123.663 119.042 121.839 123.788 121.032 126.865C120.987 128.452 124.456 128.482 125.33 127.088L125.255 156.391C125.084 157.777 121.181 159.64 119.903 159.066C109.571 153.925 99.2773 150.006 88.1683 147.108C87.0844 142.518 89.8055 136.312 93.364 134.479C101.812 135.679 109.84 133.555 115.343 126.701C119.843 121.098 122.183 113.789 121.391 106.204C113.728 104.774 105.804 105.862 99.2922 109.915C92.3847 114.214 89.1402 122.268 89.7308 130.277C89.798 131.223 88.8262 132.117 87.9441 132.177V104.602C87.9441 104.602 91.4801 98.0459 93.5359 95.7139C102.709 96.9358 110.797 93.8289 116.359 86.7955C122.086 79.5461 123.91 70.1882 122.347 60.8303C104.6 59.0347 87.5105 72.2893 90.0074 89.448C90.2765 91.3106 88.6991 94.1046 88.6991 94.1046V72.0061C88.6991 72.0061 98.1858 60.1597 97.1392 52.3739C96.1674 45.1692 92.1828 38.9554 86.4564 34.4776C82.27 37.957 79.3245 42.107 77.1341 46.8903C72.9178 56.0843 75.9006 66.2171 83.8474 72.3489C83.7651 80.3359 84.2211 87.3096 82.9054 94.3877C82.5615 85.9611 81.2981 78.9277 74.6746 73.7421C69.5238 69.7114 60.2165 66.4629 54.1836 69.1749C51.6643 76.5361 55.3573 85.6631 60.224 90.9232C65.2851 96.3919 71.5722 98.0459 78.8386 96.5334C80.5281 98.6941 83.4437 101.421 83.4661 104.297V132.311C81.1486 131.126 80.8122 128.996 80.8421 126.574C80.9842 116.158 75.3773 106.756 65.9355 102.256C59.013 98.9549 51.4251 98.1055 43.7774 99.0518C43.2765 107.888 45.3996 116.181 50.6177 122.99C57.0992 131.439 67.2064 135.127 77.7621 132.974C81.9037 136.23 84.5351 140.857 83.3614 145.938C65.7785 142.116 48.1956 140.298 30.2239 142.131C28.4073 142.317 27.9737 143.48 28.2428 144.724C28.5418 146.087 29.3567 146.482 31.2555 146.355C60.3885 144.418 89.0804 149.082 115.672 161.897L106.267 168.171C83.81 156.272 59.2671 150.997 34.1262 151.712C32.6386 151.757 32.033 153.136 32.1302 154C32.2423 154.953 32.8404 155.929 34.358 155.915C58.0336 155.691 81.2159 160.161 102.664 171.017L94.3508 178.602C77.8593 169.05 59.7979 163.887 40.5628 162.836C38.8733 162.747 37.8267 163.119 37.3707 164.229C37.0492 165.027 37.6099 167.046 39.0378 167.113C57.4879 167.984 75.2204 172.768 91.3754 181.962C88.8187 184.994 87.0694 187.013 84.8641 190.165C73.8672 183.549 62.4144 178.788 49.8028 175.927C47.7844 175.472 46.6705 176.404 46.8275 178.177C46.9097 179.153 47.6199 180.047 49.1076 180.338C61.1211 182.647 71.7591 187.736 82.427 193.637L80.1244 197.638C79.4666 198.785 80.0347 199.94 80.7001 200.476C81.3579 201.005 83.0549 201.296 83.6829 200.275C87.361 194.292 91.1586 188.928 96.0627 183.608C112.046 166.271 133.868 156.019 157.139 151.69C167.606 149.738 177.317 148.725 187.932 149.298C189.637 149.388 190.683 147.786 190.459 146.721C190.242 145.707 187.954 144.56 187.954 144.56V144.53ZM117.241 110.347C116.479 121.18 109.287 131.015 97.4981 130.463C99.5913 126.485 103.845 124.414 106.932 121.292C107.74 120.241 107.859 119.049 107.291 118.207C105.512 115.585 99.9576 121.53 94.6423 125.784C95.5693 114.467 106.162 109.52 117.241 110.354V110.347ZM118.266 64.9653C118.983 72.7438 116.741 79.6281 112.143 85.4246C108.293 88.986 104.017 91.8247 97.4756 91.2957C101.52 84.2698 110.917 78.667 107.202 76.3796C106.08 75.6867 104.742 75.9699 103.74 77.0576L94.0368 87.6002C93.5509 74.8597 104.331 65.8296 118.266 64.9728V64.9653ZM74.9886 92.7337C63.9993 92.8454 58.0934 84.1059 57.7197 72.6842C68.0362 72.7363 77.5453 78.0188 77.7845 88.5613L70.3238 81.4535C69.0604 80.2465 67.8493 80.1124 66.9821 80.7978C63.6629 83.4204 70.6826 86.8402 74.9886 92.7262V92.7337ZM73.6878 129.346C58.699 129.867 48.3974 117.708 48.3451 103.172C62.3845 102.457 74.9213 109.237 76.1623 124.13L64.0292 113.811C62.9003 112.85 61.5622 112.761 60.9716 113.133C56.3665 116.039 68.9407 121.396 73.6878 129.338V129.346ZM86.7255 53.8938C85.948 53.7299 84.3258 54.5569 84.2959 55.9576L84.0417 66.1798C76.9772 59.2731 78.9283 48.82 86.4265 40.3933C93.2145 47.2255 95.9954 57.9544 88.9608 65.8818C87.518 60.3534 90.0298 54.6016 86.733 53.8938H86.7255ZM145.522 149.731L145.619 140.805L159.726 140.79L159.801 146.87L145.522 149.738V149.731ZM175.328 144.768L164.301 145.64L163.86 136.334L141.209 136.32L140.842 150.9L129.823 154.424L129.898 118.997L152.542 103.179L175.433 118.84L175.335 144.761L175.328 144.768Z"/>
<path d="M146.232 117.097C145.911 121.791 145.522 125.606 146.449 129.845C150.71 130.471 154.508 130.441 158.979 129.741L158.993 117.179C154.665 116.382 150.441 116.389 146.232 117.097ZM154.523 125.904L150 125.941L149.963 121.433L154.486 121.396L154.523 125.904Z"/>
</mask>
<path d="M191.079 38.076C151.607 -7.70035 82.6661 -12.3868 37.6697 28.0624C-10.803 71.6334 -11.6403 147.599 33.8346 193.473C75.3175 235.323 140.917 236.477 183.731 195.052C227.068 153.128 230.319 83.5767 191.079 38.076ZM155.45 210.05C127.573 224.609 94.2909 225.026 66.5783 211.518C11.2429 184.539 -10.9152 117.156 16.6105 62.6778C34.4327 27.4142 69.5836 4.92093 109.579 4.89112C150.74 4.86132 186.848 29.2173 203.863 65.9933C228.376 118.959 207.982 182.61 155.442 210.05H155.45Z" fill="#8EB122"/>
<path d="M166.342 156.302C168.047 155.885 168.921 154.514 168.428 153.158C168.174 152.465 167.172 151.683 165.789 151.981C136.566 158.351 112.502 173.908 96.7056 199.255C95.6815 200.894 95.7039 202.145 96.8252 202.98C98.1484 203.971 99.5315 203.546 100.578 201.743C114.917 177.052 139.37 162.881 166.342 156.295V156.302Z" fill="#8EB122"/>
<path d="M184.725 155.624C154.852 159.17 128.844 175.04 113.638 201.274C112.913 202.525 114.176 203.956 115.059 204.246C116.337 204.671 117.286 204.306 118.273 202.533C131.535 178.765 157.087 163.611 183.357 160.273C184.8 160.087 185.428 159.23 185.936 158.545C186.37 157.963 185.966 155.468 184.725 155.617V155.624Z" fill="#8EB122"/>
<path d="M175.777 169.035C158.829 173.736 144.408 183.467 134.421 197.757C133.531 199.031 133.636 200.342 134.353 200.901C138.36 204.023 146.472 181.396 176.816 173.289C178.124 172.939 178.408 171.494 178.326 170.801C178.236 170.004 177.107 168.662 175.777 169.035Z" fill="#8EB122"/>
<path d="M187.954 144.53L179.156 144.493L179.185 127.036C180.344 127.744 181.406 128.072 182.228 128.109C185.921 128.273 180.688 117.715 178.296 116.032L152.235 97.6734L125.951 116.486C123.663 119.042 121.839 123.788 121.032 126.865C120.987 128.452 124.456 128.482 125.33 127.088L125.255 156.391C125.084 157.777 121.181 159.64 119.903 159.066C109.571 153.925 99.2773 150.006 88.1683 147.108C87.0844 142.518 89.8055 136.312 93.364 134.479C101.812 135.679 109.84 133.555 115.343 126.701C119.843 121.098 122.183 113.789 121.391 106.204C113.728 104.774 105.804 105.862 99.2922 109.915C92.3847 114.214 89.1402 122.268 89.7308 130.277C89.798 131.223 88.8262 132.117 87.9441 132.177V104.602C87.9441 104.602 91.4801 98.0459 93.5359 95.7139C102.709 96.9358 110.797 93.8289 116.359 86.7955C122.086 79.5461 123.91 70.1882 122.347 60.8303C104.6 59.0347 87.5105 72.2893 90.0074 89.448C90.2765 91.3106 88.6991 94.1046 88.6991 94.1046V72.0061C88.6991 72.0061 98.1858 60.1597 97.1392 52.3739C96.1674 45.1692 92.1828 38.9554 86.4564 34.4776C82.27 37.957 79.3245 42.107 77.1341 46.8903C72.9178 56.0843 75.9006 66.2171 83.8474 72.3489C83.7651 80.3359 84.2211 87.3096 82.9054 94.3877C82.5615 85.9611 81.2981 78.9277 74.6746 73.7421C69.5238 69.7114 60.2165 66.4629 54.1836 69.1749C51.6643 76.5361 55.3573 85.6631 60.224 90.9232C65.2851 96.3919 71.5722 98.0459 78.8386 96.5334C80.5281 98.6941 83.4437 101.421 83.4661 104.297V132.311C81.1486 131.126 80.8122 128.996 80.8421 126.574C80.9842 116.158 75.3773 106.756 65.9355 102.256C59.013 98.9549 51.4251 98.1055 43.7774 99.0518C43.2765 107.888 45.3996 116.181 50.6177 122.99C57.0992 131.439 67.2064 135.127 77.7621 132.974C81.9037 136.23 84.5351 140.857 83.3614 145.938C65.7785 142.116 48.1956 140.298 30.2239 142.131C28.4073 142.317 27.9737 143.48 28.2428 144.724C28.5418 146.087 29.3567 146.482 31.2555 146.355C60.3885 144.418 89.0804 149.082 115.672 161.897L106.267 168.171C83.81 156.272 59.2671 150.997 34.1262 151.712C32.6386 151.757 32.033 153.136 32.1302 154C32.2423 154.953 32.8404 155.929 34.358 155.915C58.0336 155.691 81.2159 160.161 102.664 171.017L94.3508 178.602C77.8593 169.05 59.7979 163.887 40.5628 162.836C38.8733 162.747 37.8267 163.119 37.3707 164.229C37.0492 165.027 37.6099 167.046 39.0378 167.113C57.4879 167.984 75.2204 172.768 91.3754 181.962C88.8187 184.994 87.0694 187.013 84.8641 190.165C73.8672 183.549 62.4144 178.788 49.8028 175.927C47.7844 175.472 46.6705 176.404 46.8275 178.177C46.9097 179.153 47.6199 180.047 49.1076 180.338C61.1211 182.647 71.7591 187.736 82.427 193.637L80.1244 197.638C79.4666 198.785 80.0347 199.94 80.7001 200.476C81.3579 201.005 83.0549 201.296 83.6829 200.275C87.361 194.292 91.1586 188.928 96.0627 183.608C112.046 166.271 133.868 156.019 157.139 151.69C167.606 149.738 177.317 148.725 187.932 149.298C189.637 149.388 190.683 147.786 190.459 146.721C190.242 145.707 187.954 144.56 187.954 144.56V144.53ZM117.241 110.347C116.479 121.18 109.287 131.015 97.4981 130.463C99.5913 126.485 103.845 124.414 106.932 121.292C107.74 120.241 107.859 119.049 107.291 118.207C105.512 115.585 99.9576 121.53 94.6423 125.784C95.5693 114.467 106.162 109.52 117.241 110.354V110.347ZM118.266 64.9653C118.983 72.7438 116.741 79.6281 112.143 85.4246C108.293 88.986 104.017 91.8247 97.4756 91.2957C101.52 84.2698 110.917 78.667 107.202 76.3796C106.08 75.6867 104.742 75.9699 103.74 77.0576L94.0368 87.6002C93.5509 74.8597 104.331 65.8296 118.266 64.9728V64.9653ZM74.9886 92.7337C63.9993 92.8454 58.0934 84.1059 57.7197 72.6842C68.0362 72.7363 77.5453 78.0188 77.7845 88.5613L70.3238 81.4535C69.0604 80.2465 67.8493 80.1124 66.9821 80.7978C63.6629 83.4204 70.6826 86.8402 74.9886 92.7262V92.7337ZM73.6878 129.346C58.699 129.867 48.3974 117.708 48.3451 103.172C62.3845 102.457 74.9213 109.237 76.1623 124.13L64.0292 113.811C62.9003 112.85 61.5622 112.761 60.9716 113.133C56.3665 116.039 68.9407 121.396 73.6878 129.338V129.346ZM86.7255 53.8938C85.948 53.7299 84.3258 54.5569 84.2959 55.9576L84.0417 66.1798C76.9772 59.2731 78.9283 48.82 86.4265 40.3933C93.2145 47.2255 95.9954 57.9544 88.9608 65.8818C87.518 60.3534 90.0298 54.6016 86.733 53.8938H86.7255ZM145.522 149.731L145.619 140.805L159.726 140.79L159.801 146.87L145.522 149.738V149.731ZM175.328 144.768L164.301 145.64L163.86 136.334L141.209 136.32L140.842 150.9L129.823 154.424L129.898 118.997L152.542 103.179L175.433 118.84L175.335 144.761L175.328 144.768Z" fill="#8EB122"/>
<path d="M146.232 117.097C145.911 121.791 145.522 125.606 146.449 129.845C150.71 130.471 154.508 130.441 158.979 129.741L158.993 117.179C154.665 116.382 150.441 116.389 146.232 117.097ZM154.523 125.904L150 125.941L149.963 121.433L154.486 121.396L154.523 125.904Z" fill="#8EB122"/>
<path d="M191.079 38.076C151.607 -7.70035 82.6661 -12.3868 37.6697 28.0624C-10.803 71.6334 -11.6403 147.599 33.8346 193.473C75.3175 235.323 140.917 236.477 183.731 195.052C227.068 153.128 230.319 83.5767 191.079 38.076ZM155.45 210.05C127.573 224.609 94.2909 225.026 66.5783 211.518C11.2429 184.539 -10.9152 117.156 16.6105 62.6778C34.4327 27.4142 69.5836 4.92093 109.579 4.89112C150.74 4.86132 186.848 29.2173 203.863 65.9933C228.376 118.959 207.982 182.61 155.442 210.05H155.45Z" stroke="#8EB122" mask="url(#path-1-outside-1_2137_882)"/>
<path d="M166.342 156.302C168.047 155.885 168.921 154.514 168.428 153.158C168.174 152.465 167.172 151.683 165.789 151.981C136.566 158.351 112.502 173.908 96.7056 199.255C95.6815 200.894 95.7039 202.145 96.8252 202.98C98.1484 203.971 99.5315 203.546 100.578 201.743C114.917 177.052 139.37 162.881 166.342 156.295V156.302Z" stroke="#8EB122" mask="url(#path-1-outside-1_2137_882)"/>
<path d="M184.725 155.624C154.852 159.17 128.844 175.04 113.638 201.274C112.913 202.525 114.176 203.956 115.059 204.246C116.337 204.671 117.286 204.306 118.273 202.533C131.535 178.765 157.087 163.611 183.357 160.273C184.8 160.087 185.428 159.23 185.936 158.545C186.37 157.963 185.966 155.468 184.725 155.617V155.624Z" stroke="#8EB122" mask="url(#path-1-outside-1_2137_882)"/>
<path d="M175.777 169.035C158.829 173.736 144.408 183.467 134.421 197.757C133.531 199.031 133.636 200.342 134.353 200.901C138.36 204.023 146.472 181.396 176.816 173.289C178.124 172.939 178.408 171.494 178.326 170.801C178.236 170.004 177.107 168.662 175.777 169.035Z" stroke="#8EB122" mask="url(#path-1-outside-1_2137_882)"/>
<path d="M187.954 144.53L179.156 144.493L179.185 127.036C180.344 127.744 181.406 128.072 182.228 128.109C185.921 128.273 180.688 117.715 178.296 116.032L152.235 97.6734L125.951 116.486C123.663 119.042 121.839 123.788 121.032 126.865C120.987 128.452 124.456 128.482 125.33 127.088L125.255 156.391C125.084 157.777 121.181 159.64 119.903 159.066C109.571 153.925 99.2773 150.006 88.1683 147.108C87.0844 142.518 89.8055 136.312 93.364 134.479C101.812 135.679 109.84 133.555 115.343 126.701C119.843 121.098 122.183 113.789 121.391 106.204C113.728 104.774 105.804 105.862 99.2922 109.915C92.3847 114.214 89.1402 122.268 89.7308 130.277C89.798 131.223 88.8262 132.117 87.9441 132.177V104.602C87.9441 104.602 91.4801 98.0459 93.5359 95.7139C102.709 96.9358 110.797 93.8289 116.359 86.7955C122.086 79.5461 123.91 70.1882 122.347 60.8303C104.6 59.0347 87.5105 72.2893 90.0074 89.448C90.2765 91.3106 88.6991 94.1046 88.6991 94.1046V72.0061C88.6991 72.0061 98.1858 60.1597 97.1392 52.3739C96.1674 45.1692 92.1828 38.9554 86.4564 34.4776C82.27 37.957 79.3245 42.107 77.1341 46.8903C72.9178 56.0843 75.9006 66.2171 83.8474 72.3489C83.7651 80.3359 84.2211 87.3096 82.9054 94.3877C82.5615 85.9611 81.2981 78.9277 74.6746 73.7421C69.5238 69.7114 60.2165 66.4629 54.1836 69.1749C51.6643 76.5361 55.3573 85.6631 60.224 90.9232C65.2851 96.3919 71.5722 98.0459 78.8386 96.5334C80.5281 98.6941 83.4437 101.421 83.4661 104.297V132.311C81.1486 131.126 80.8122 128.996 80.8421 126.574C80.9842 116.158 75.3773 106.756 65.9355 102.256C59.013 98.9549 51.4251 98.1055 43.7774 99.0518C43.2765 107.888 45.3996 116.181 50.6177 122.99C57.0992 131.439 67.2064 135.127 77.7621 132.974C81.9037 136.23 84.5351 140.857 83.3614 145.938C65.7785 142.116 48.1956 140.298 30.2239 142.131C28.4073 142.317 27.9737 143.48 28.2428 144.724C28.5418 146.087 29.3567 146.482 31.2555 146.355C60.3885 144.418 89.0804 149.082 115.672 161.897L106.267 168.171C83.81 156.272 59.2671 150.997 34.1262 151.712C32.6386 151.757 32.033 153.136 32.1302 154C32.2423 154.953 32.8404 155.929 34.358 155.915C58.0336 155.691 81.2159 160.161 102.664 171.017L94.3508 178.602C77.8593 169.05 59.7979 163.887 40.5628 162.836C38.8733 162.747 37.8267 163.119 37.3707 164.229C37.0492 165.027 37.6099 167.046 39.0378 167.113C57.4879 167.984 75.2204 172.768 91.3754 181.962C88.8187 184.994 87.0694 187.013 84.8641 190.165C73.8672 183.549 62.4144 178.788 49.8028 175.927C47.7844 175.472 46.6705 176.404 46.8275 178.177C46.9097 179.153 47.6199 180.047 49.1076 180.338C61.1211 182.647 71.7591 187.736 82.427 193.637L80.1244 197.638C79.4666 198.785 80.0347 199.94 80.7001 200.476C81.3579 201.005 83.0549 201.296 83.6829 200.275C87.361 194.292 91.1586 188.928 96.0627 183.608C112.046 166.271 133.868 156.019 157.139 151.69C167.606 149.738 177.317 148.725 187.932 149.298C189.637 149.388 190.683 147.786 190.459 146.721C190.242 145.707 187.954 144.56 187.954 144.56V144.53ZM117.241 110.347C116.479 121.18 109.287 131.015 97.4981 130.463C99.5913 126.485 103.845 124.414 106.932 121.292C107.74 120.241 107.859 119.049 107.291 118.207C105.512 115.585 99.9576 121.53 94.6423 125.784C95.5693 114.467 106.162 109.52 117.241 110.354V110.347ZM118.266 64.9653C118.983 72.7438 116.741 79.6281 112.143 85.4246C108.293 88.986 104.017 91.8247 97.4756 91.2957C101.52 84.2698 110.917 78.667 107.202 76.3796C106.08 75.6867 104.742 75.9699 103.74 77.0576L94.0368 87.6002C93.5509 74.8597 104.331 65.8296 118.266 64.9728V64.9653ZM74.9886 92.7337C63.9993 92.8454 58.0934 84.1059 57.7197 72.6842C68.0362 72.7363 77.5453 78.0188 77.7845 88.5613L70.3238 81.4535C69.0604 80.2465 67.8493 80.1124 66.9821 80.7978C63.6629 83.4204 70.6826 86.8402 74.9886 92.7262V92.7337ZM73.6878 129.346C58.699 129.867 48.3974 117.708 48.3451 103.172C62.3845 102.457 74.9213 109.237 76.1623 124.13L64.0292 113.811C62.9003 112.85 61.5622 112.761 60.9716 113.133C56.3665 116.039 68.9407 121.396 73.6878 129.338V129.346ZM86.7255 53.8938C85.948 53.7299 84.3258 54.5569 84.2959 55.9576L84.0417 66.1798C76.9772 59.2731 78.9283 48.82 86.4265 40.3933C93.2145 47.2255 95.9954 57.9544 88.9608 65.8818C87.518 60.3534 90.0298 54.6016 86.733 53.8938H86.7255ZM145.522 149.731L145.619 140.805L159.726 140.79L159.801 146.87L145.522 149.738V149.731ZM175.328 144.768L164.301 145.64L163.86 136.334L141.209 136.32L140.842 150.9L129.823 154.424L129.898 118.997L152.542 103.179L175.433 118.84L175.335 144.761L175.328 144.768Z" stroke="#8EB122" mask="url(#path-1-outside-1_2137_882)"/>
<path d="M146.232 117.097C145.911 121.791 145.522 125.606 146.449 129.845C150.71 130.471 154.508 130.441 158.979 129.741L158.993 117.179C154.665 116.382 150.441 116.389 146.232 117.097ZM154.523 125.904L150 125.941L149.963 121.433L154.486 121.396L154.523 125.904Z" stroke="#8EB122" mask="url(#path-1-outside-1_2137_882)"/>
</svg>
