<svg width="218" height="226" viewBox="0 0 218 226" fill="none" xmlns="http://www.w3.org/2000/svg">
<mask id="path-1-outside-1_2137_881" maskUnits="userSpaceOnUse" x="-0.799988" y="-0.799805" width="219" height="227" fill="black">
<rect fill="white" x="-0.799988" y="-0.799805" width="219" height="227"/>
<path d="M213.853 84.5504C203.744 43.7531 172.429 11.7379 131.198 2.65775C97.4105 -4.78366 62.6036 4.95199 37.0566 28.0956C-15.2505 75.4703 -11.2458 160.566 45.0215 203.404C89.4383 237.222 149.911 230.883 187.145 189.974C212.759 161.832 223.15 122.04 213.86 84.5579L213.853 84.5504ZM177.103 193.847C139.765 228.499 83.8108 229.84 44.8205 197.698C4.00642 164.037 -7.61326 105.214 18.4026 58.6657C36.3644 26.5388 68.9903 5.74902 106.276 4.62424C136.9 3.70059 165.833 17.1756 185.686 39.835C225.227 84.9676 221.006 153.102 177.103 193.847Z"/>
<path d="M90.2646 42.6953C86.9298 46.7326 86.3492 51.5445 90.1604 54.8965C91.0983 56.4086 92.9518 55.9915 93.6515 54.7178C94.0014 54.0846 93.8897 52.9598 93.0784 51.9691C89.818 47.9989 97.7605 43.8424 92.4456 38.6729C89.3416 35.6561 93.793 32.6617 91.4407 30.8144C90.607 30.1589 89.3341 30.2483 88.4335 31.239C85.3145 34.6803 86.2078 39.4253 90.2721 42.6879L90.2646 42.6953Z"/>
<path d="M102.361 49.1088C104.929 50.0995 106.284 47.8201 106.738 46.2708C108.264 41.131 103.06 40.0212 104.973 36.5872C105.703 35.2762 105.234 34.1664 104.579 33.5109C103.701 32.6319 102.301 33.0788 101.423 34.0025C98.3932 37.2055 99.934 41.2204 102.51 44.2372C101.855 45.4886 100.909 48.5501 102.353 49.1088H102.361Z"/>
<path d="M75.928 53.6675C75.8908 54.2336 77.4093 55.5148 78.2057 55.0902C82.9549 52.5576 80.424 47.6562 79.3446 44.4756C78.898 43.1571 81.5108 39.2912 77.9378 39.2614C76.248 39.2465 74.3052 42.4048 74.0894 44.0361C73.8139 46.1441 76.3002 47.9914 76.1662 49.9728L75.9205 53.6526L75.928 53.6675Z"/>
<path d="M80.6324 61.9208C80.7217 63.3882 78.5779 68.2225 82.8506 67.1871C86.6842 66.256 87.0043 56.1777 82.8804 55.2764C79.3819 54.5166 80.5133 59.85 80.6324 61.9208Z"/>
<path d="M161.71 164.506C161.099 163.501 159.737 163.419 158.941 163.642C158.092 163.881 157.355 164.499 156.737 165.557L150.224 176.685C148.423 181.49 149.941 186.473 154.087 189.251C157.675 191.657 162.871 191.352 166.198 188.417C169.913 185.14 171.007 179.873 168.163 175.166L161.717 164.499L161.71 164.506ZM163.02 185.184C161.717 186.264 159.156 187.203 156.923 185.751C155.33 184.708 153.246 182.25 154.013 179.464C155.055 175.687 157.318 172.454 159.655 169.646C164.375 175.925 167.307 181.646 163.012 185.184H163.02Z"/>
<path d="M175.987 153.683L168.513 153.549C171.253 150.391 172.853 146.756 172.853 142.488V102.256C172.853 102.256 169.116 89.9136 163.176 87.1054V69.7644C162.484 60.6172 155.085 55.2988 146.16 55.485H100.708C91.6045 55.8723 86.7437 65.4292 87.8231 74.2263C84.265 74.2859 81.6299 74.9488 80.2304 77.3399C78.563 80.1854 80.1709 82.867 82.3742 85.1836C84.6223 107.351 81.0344 104.789 71.7371 113.817L61.2861 123.955C59.3507 125.832 58.1374 127.836 56.9315 129.839L55.9266 165.37C55.8299 168.186 50.8574 171.061 52.6216 175.888C50.3885 173.043 49.19 169.4 49.5324 166.123C55.7629 159.68 57.2963 150.093 55.0929 142.167C51.7879 134.137 46.3614 126.957 38.6869 122.011C33.0892 129.385 30.9678 137.698 31.9057 146.867C28.0796 146.473 24.7969 145.743 21.1495 147.024C21.2016 161.214 30.2085 172.201 44.0911 171.404C46.4731 171.27 47.7534 176.223 46.2274 176.425L41.5379 177.035C40.6818 177.147 40.9275 181.356 40.9275 181.356L135.582 181.467C137.19 181.467 138.091 180.037 138.039 179.106C137.875 176.29 131.83 177.624 132.471 175.203C133.543 171.188 130.394 168.64 128.927 166.316L128.712 135.836C128.674 130.428 126.426 126.428 122.66 122.83L110.727 111.426C108.405 109.206 104.058 106.606 103.388 103.009C102.361 97.4369 102.145 90.5393 103.567 85.2357C104.534 82.651 106.678 81.042 105.509 78.0625C104.512 75.5298 102.301 75.1202 99.011 74.4572C96.7705 73.9805 97.9093 66.6806 100.902 66.6583L147.835 66.3454C150.068 66.3305 151.988 67.9991 152.003 70.3008L152.085 87.7013C146.137 89.7423 142.341 94.949 142.326 101.37L142.252 143.516C142.252 147.456 144.254 150.525 146.368 153.571L140.696 153.81C139.326 153.869 138.545 155.084 138.522 156.067C138.5 156.849 139.408 158.279 140.77 158.279L175.927 158.369C177.647 158.369 178.659 157.296 178.674 156.059C178.689 154.741 177.699 153.713 175.979 153.683H175.987ZM36.4463 156.477C35.1362 155.218 33.8708 155.151 33.1488 155.709C32.1141 156.514 31.8536 157.728 32.5905 158.942L40.4288 167.017C31.9727 165.505 26.375 158.629 26.0326 150.659C34.4365 150.637 40.9796 154.763 43.2648 162.473L36.4463 156.469V156.477ZM45.1704 141.653C44.8503 140.387 43.6668 139.799 42.647 140.134C41.7835 140.417 40.9573 141.549 41.2327 142.815L43.7412 154.115L36.7143 148.097C34.9353 141.772 36.2305 134.89 39.6844 128.424C49.2273 135.97 54.8473 146.651 49.4282 158.465L45.163 141.653H45.1704ZM127.915 176.901L57.5791 176.79C55.9564 175.605 56.8497 170.309 59.0902 169.452L124.789 169.423C128.004 169.423 129.374 174.912 127.915 176.901ZM124.469 130.741L124.454 164.983L61.1968 164.961L61.2117 130.718L124.469 130.741ZM120.389 126.249L65.5663 126.346L78.2876 114.174C81.3693 111.225 86.4832 108.431 86.6693 103.85L87.3913 86.0253L98.5421 86.0774C98.6388 92.9006 97.9912 98.9788 99.1971 105.348C105.442 113.05 112.588 119.068 120.389 126.249ZM101.393 79.3213V81.556H83.528V79.3213H101.393ZM146.77 62.1889H104.371C104.371 62.1889 98.7058 61.8314 96.6514 64.0586C92.1851 68.8929 95.5497 73.9507 92.5871 74.8818C90.5996 69.0568 93.8823 60.5204 100.708 60.6992H147.105C157.258 60.6992 157.802 69.7644 157.802 69.7644V86.7702L156.469 86.7478L156.209 70.2337C156.112 63.9916 151.549 62.1741 146.77 62.1889ZM155.985 90.8968C161.189 90.4127 166.548 92.3493 168.052 99.5822L146.889 100.118C147.38 94.9267 151.571 91.3065 155.985 90.8968ZM157.809 154.011C152.45 154.138 147.805 150.681 146.941 144.871L167.918 144.931C167.389 150.361 162.93 153.884 157.809 154.003V154.011ZM146.8 141.244L146.971 110.696C149.42 110.197 151.154 110.323 152.755 110.577L153.142 135.515C153.164 136.916 156 139.687 155.189 140.618C152.427 142.011 149.621 141.467 146.8 141.244ZM168.26 140.357C164.717 140.61 162.305 140.849 159.29 139.933C160.615 138.182 162.424 136.782 162.432 134.577L162.476 120.707C162.476 119.5 160.787 118.659 159.878 118.882C159.209 119.046 158.554 119.761 157.965 120.7L158.092 133.698L156.477 133.713L156.335 112.744L157.258 112.193C158.256 111.597 159.075 110.785 159.201 109.936C159.923 104.99 151.14 108.64 146.041 105.474C153.886 104.044 160.891 104.647 168.387 104.714L168.26 140.35V140.357Z"/>
<path d="M92.7508 155.031C98.0582 155.031 102.353 150.726 102.353 145.422C102.353 140.119 98.0508 135.813 92.7508 135.813C87.4509 135.813 83.1484 140.119 83.1484 145.422C83.1484 150.726 87.4509 155.031 92.7508 155.031ZM92.8178 140.402C95.6092 140.402 97.8647 142.666 97.8647 145.452C97.8647 148.238 95.6018 150.503 92.8178 150.503C90.0338 150.503 87.771 148.238 87.771 145.452C87.771 142.666 90.0338 140.402 92.8178 140.402Z"/>
</mask>
<path d="M213.853 84.5504C203.744 43.7531 172.429 11.7379 131.198 2.65775C97.4105 -4.78366 62.6036 4.95199 37.0566 28.0956C-15.2505 75.4703 -11.2458 160.566 45.0215 203.404C89.4383 237.222 149.911 230.883 187.145 189.974C212.759 161.832 223.15 122.04 213.86 84.5579L213.853 84.5504ZM177.103 193.847C139.765 228.499 83.8108 229.84 44.8205 197.698C4.00642 164.037 -7.61326 105.214 18.4026 58.6657C36.3644 26.5388 68.9903 5.74902 106.276 4.62424C136.9 3.70059 165.833 17.1756 185.686 39.835C225.227 84.9676 221.006 153.102 177.103 193.847Z" fill="#8EB122"/>
<path d="M90.2646 42.6953C86.9298 46.7326 86.3492 51.5445 90.1604 54.8965C91.0983 56.4086 92.9518 55.9915 93.6515 54.7178C94.0014 54.0846 93.8897 52.9598 93.0784 51.9691C89.818 47.9989 97.7605 43.8424 92.4456 38.6729C89.3416 35.6561 93.793 32.6617 91.4407 30.8144C90.607 30.1589 89.3341 30.2483 88.4335 31.239C85.3145 34.6803 86.2078 39.4253 90.2721 42.6879L90.2646 42.6953Z" fill="#8EB122"/>
<path d="M102.361 49.1088C104.929 50.0995 106.284 47.8201 106.738 46.2708C108.264 41.131 103.06 40.0212 104.973 36.5872C105.703 35.2762 105.234 34.1664 104.579 33.5109C103.701 32.6319 102.301 33.0788 101.423 34.0025C98.3932 37.2055 99.934 41.2204 102.51 44.2372C101.855 45.4886 100.909 48.5501 102.353 49.1088H102.361Z" fill="#8EB122"/>
<path d="M75.928 53.6675C75.8908 54.2336 77.4093 55.5148 78.2057 55.0902C82.9549 52.5576 80.424 47.6562 79.3446 44.4756C78.898 43.1571 81.5108 39.2912 77.9378 39.2614C76.248 39.2465 74.3052 42.4048 74.0894 44.0361C73.8139 46.1441 76.3002 47.9914 76.1662 49.9728L75.9205 53.6526L75.928 53.6675Z" fill="#8EB122"/>
<path d="M80.6324 61.9208C80.7217 63.3882 78.5779 68.2225 82.8506 67.1871C86.6842 66.256 87.0043 56.1777 82.8804 55.2764C79.3819 54.5166 80.5133 59.85 80.6324 61.9208Z" fill="#8EB122"/>
<path d="M161.71 164.506C161.099 163.501 159.737 163.419 158.941 163.642C158.092 163.881 157.355 164.499 156.737 165.557L150.224 176.685C148.423 181.49 149.941 186.473 154.087 189.251C157.675 191.657 162.871 191.352 166.198 188.417C169.913 185.14 171.007 179.873 168.163 175.166L161.717 164.499L161.71 164.506ZM163.02 185.184C161.717 186.264 159.156 187.203 156.923 185.751C155.33 184.708 153.246 182.25 154.013 179.464C155.055 175.687 157.318 172.454 159.655 169.646C164.375 175.925 167.307 181.646 163.012 185.184H163.02Z" fill="#8EB122"/>
<path d="M175.987 153.683L168.513 153.549C171.253 150.391 172.853 146.756 172.853 142.488V102.256C172.853 102.256 169.116 89.9136 163.176 87.1054V69.7644C162.484 60.6172 155.085 55.2988 146.16 55.485H100.708C91.6045 55.8723 86.7437 65.4292 87.8231 74.2263C84.265 74.2859 81.6299 74.9488 80.2304 77.3399C78.563 80.1854 80.1709 82.867 82.3742 85.1836C84.6223 107.351 81.0344 104.789 71.7371 113.817L61.2861 123.955C59.3507 125.832 58.1374 127.836 56.9315 129.839L55.9266 165.37C55.8299 168.186 50.8574 171.061 52.6216 175.888C50.3885 173.043 49.19 169.4 49.5324 166.123C55.7629 159.68 57.2963 150.093 55.0929 142.167C51.7879 134.137 46.3614 126.957 38.6869 122.011C33.0892 129.385 30.9678 137.698 31.9057 146.867C28.0796 146.473 24.7969 145.743 21.1495 147.024C21.2016 161.214 30.2085 172.201 44.0911 171.404C46.4731 171.27 47.7534 176.223 46.2274 176.425L41.5379 177.035C40.6818 177.147 40.9275 181.356 40.9275 181.356L135.582 181.467C137.19 181.467 138.091 180.037 138.039 179.106C137.875 176.29 131.83 177.624 132.471 175.203C133.543 171.188 130.394 168.64 128.927 166.316L128.712 135.836C128.674 130.428 126.426 126.428 122.66 122.83L110.727 111.426C108.405 109.206 104.058 106.606 103.388 103.009C102.361 97.4369 102.145 90.5393 103.567 85.2357C104.534 82.651 106.678 81.042 105.509 78.0625C104.512 75.5298 102.301 75.1202 99.011 74.4572C96.7705 73.9805 97.9093 66.6806 100.902 66.6583L147.835 66.3454C150.068 66.3305 151.988 67.9991 152.003 70.3008L152.085 87.7013C146.137 89.7423 142.341 94.949 142.326 101.37L142.252 143.516C142.252 147.456 144.254 150.525 146.368 153.571L140.696 153.81C139.326 153.869 138.545 155.084 138.522 156.067C138.5 156.849 139.408 158.279 140.77 158.279L175.927 158.369C177.647 158.369 178.659 157.296 178.674 156.059C178.689 154.741 177.699 153.713 175.979 153.683H175.987ZM36.4463 156.477C35.1362 155.218 33.8708 155.151 33.1488 155.709C32.1141 156.514 31.8536 157.728 32.5905 158.942L40.4288 167.017C31.9727 165.505 26.375 158.629 26.0326 150.659C34.4365 150.637 40.9796 154.763 43.2648 162.473L36.4463 156.469V156.477ZM45.1704 141.653C44.8503 140.387 43.6668 139.799 42.647 140.134C41.7835 140.417 40.9573 141.549 41.2327 142.815L43.7412 154.115L36.7143 148.097C34.9353 141.772 36.2305 134.89 39.6844 128.424C49.2273 135.97 54.8473 146.651 49.4282 158.465L45.163 141.653H45.1704ZM127.915 176.901L57.5791 176.79C55.9564 175.605 56.8497 170.309 59.0902 169.452L124.789 169.423C128.004 169.423 129.374 174.912 127.915 176.901ZM124.469 130.741L124.454 164.983L61.1968 164.961L61.2117 130.718L124.469 130.741ZM120.389 126.249L65.5663 126.346L78.2876 114.174C81.3693 111.225 86.4832 108.431 86.6693 103.85L87.3913 86.0253L98.5421 86.0774C98.6388 92.9006 97.9912 98.9788 99.1971 105.348C105.442 113.05 112.588 119.068 120.389 126.249ZM101.393 79.3213V81.556H83.528V79.3213H101.393ZM146.77 62.1889H104.371C104.371 62.1889 98.7058 61.8314 96.6514 64.0586C92.1851 68.8929 95.5497 73.9507 92.5871 74.8818C90.5996 69.0568 93.8823 60.5204 100.708 60.6992H147.105C157.258 60.6992 157.802 69.7644 157.802 69.7644V86.7702L156.469 86.7478L156.209 70.2337C156.112 63.9916 151.549 62.1741 146.77 62.1889ZM155.985 90.8968C161.189 90.4127 166.548 92.3493 168.052 99.5822L146.889 100.118C147.38 94.9267 151.571 91.3065 155.985 90.8968ZM157.809 154.011C152.45 154.138 147.805 150.681 146.941 144.871L167.918 144.931C167.389 150.361 162.93 153.884 157.809 154.003V154.011ZM146.8 141.244L146.971 110.696C149.42 110.197 151.154 110.323 152.755 110.577L153.142 135.515C153.164 136.916 156 139.687 155.189 140.618C152.427 142.011 149.621 141.467 146.8 141.244ZM168.26 140.357C164.717 140.61 162.305 140.849 159.29 139.933C160.615 138.182 162.424 136.782 162.432 134.577L162.476 120.707C162.476 119.5 160.787 118.659 159.878 118.882C159.209 119.046 158.554 119.761 157.965 120.7L158.092 133.698L156.477 133.713L156.335 112.744L157.258 112.193C158.256 111.597 159.075 110.785 159.201 109.936C159.923 104.99 151.14 108.64 146.041 105.474C153.886 104.044 160.891 104.647 168.387 104.714L168.26 140.35V140.357Z" fill="#8EB122"/>
<path d="M92.7508 155.031C98.0582 155.031 102.353 150.726 102.353 145.422C102.353 140.119 98.0508 135.813 92.7508 135.813C87.4509 135.813 83.1484 140.119 83.1484 145.422C83.1484 150.726 87.4509 155.031 92.7508 155.031ZM92.8178 140.402C95.6092 140.402 97.8647 142.666 97.8647 145.452C97.8647 148.238 95.6018 150.503 92.8178 150.503C90.0338 150.503 87.771 148.238 87.771 145.452C87.771 142.666 90.0338 140.402 92.8178 140.402Z" fill="#8EB122"/>
<path d="M213.853 84.5504C203.744 43.7531 172.429 11.7379 131.198 2.65775C97.4105 -4.78366 62.6036 4.95199 37.0566 28.0956C-15.2505 75.4703 -11.2458 160.566 45.0215 203.404C89.4383 237.222 149.911 230.883 187.145 189.974C212.759 161.832 223.15 122.04 213.86 84.5579L213.853 84.5504ZM177.103 193.847C139.765 228.499 83.8108 229.84 44.8205 197.698C4.00642 164.037 -7.61326 105.214 18.4026 58.6657C36.3644 26.5388 68.9903 5.74902 106.276 4.62424C136.9 3.70059 165.833 17.1756 185.686 39.835C225.227 84.9676 221.006 153.102 177.103 193.847Z" stroke="#8EB122" stroke-width="0.4" mask="url(#path-1-outside-1_2137_881)"/>
<path d="M90.2646 42.6953C86.9298 46.7326 86.3492 51.5445 90.1604 54.8965C91.0983 56.4086 92.9518 55.9915 93.6515 54.7178C94.0014 54.0846 93.8897 52.9598 93.0784 51.9691C89.818 47.9989 97.7605 43.8424 92.4456 38.6729C89.3416 35.6561 93.793 32.6617 91.4407 30.8144C90.607 30.1589 89.3341 30.2483 88.4335 31.239C85.3145 34.6803 86.2078 39.4253 90.2721 42.6879L90.2646 42.6953Z" stroke="#8EB122" stroke-width="0.4" mask="url(#path-1-outside-1_2137_881)"/>
<path d="M102.361 49.1088C104.929 50.0995 106.284 47.8201 106.738 46.2708C108.264 41.131 103.06 40.0212 104.973 36.5872C105.703 35.2762 105.234 34.1664 104.579 33.5109C103.701 32.6319 102.301 33.0788 101.423 34.0025C98.3932 37.2055 99.934 41.2204 102.51 44.2372C101.855 45.4886 100.909 48.5501 102.353 49.1088H102.361Z" stroke="#8EB122" stroke-width="0.4" mask="url(#path-1-outside-1_2137_881)"/>
<path d="M75.928 53.6675C75.8908 54.2336 77.4093 55.5148 78.2057 55.0902C82.9549 52.5576 80.424 47.6562 79.3446 44.4756C78.898 43.1571 81.5108 39.2912 77.9378 39.2614C76.248 39.2465 74.3052 42.4048 74.0894 44.0361C73.8139 46.1441 76.3002 47.9914 76.1662 49.9728L75.9205 53.6526L75.928 53.6675Z" stroke="#8EB122" stroke-width="0.4" mask="url(#path-1-outside-1_2137_881)"/>
<path d="M80.6324 61.9208C80.7217 63.3882 78.5779 68.2225 82.8506 67.1871C86.6842 66.256 87.0043 56.1777 82.8804 55.2764C79.3819 54.5166 80.5133 59.85 80.6324 61.9208Z" stroke="#8EB122" stroke-width="0.4" mask="url(#path-1-outside-1_2137_881)"/>
<path d="M161.71 164.506C161.099 163.501 159.737 163.419 158.941 163.642C158.092 163.881 157.355 164.499 156.737 165.557L150.224 176.685C148.423 181.49 149.941 186.473 154.087 189.251C157.675 191.657 162.871 191.352 166.198 188.417C169.913 185.14 171.007 179.873 168.163 175.166L161.717 164.499L161.71 164.506ZM163.02 185.184C161.717 186.264 159.156 187.203 156.923 185.751C155.33 184.708 153.246 182.25 154.013 179.464C155.055 175.687 157.318 172.454 159.655 169.646C164.375 175.925 167.307 181.646 163.012 185.184H163.02Z" stroke="#8EB122" stroke-width="0.4" mask="url(#path-1-outside-1_2137_881)"/>
<path d="M175.987 153.683L168.513 153.549C171.253 150.391 172.853 146.756 172.853 142.488V102.256C172.853 102.256 169.116 89.9136 163.176 87.1054V69.7644C162.484 60.6172 155.085 55.2988 146.16 55.485H100.708C91.6045 55.8723 86.7437 65.4292 87.8231 74.2263C84.265 74.2859 81.6299 74.9488 80.2304 77.3399C78.563 80.1854 80.1709 82.867 82.3742 85.1836C84.6223 107.351 81.0344 104.789 71.7371 113.817L61.2861 123.955C59.3507 125.832 58.1374 127.836 56.9315 129.839L55.9266 165.37C55.8299 168.186 50.8574 171.061 52.6216 175.888C50.3885 173.043 49.19 169.4 49.5324 166.123C55.7629 159.68 57.2963 150.093 55.0929 142.167C51.7879 134.137 46.3614 126.957 38.6869 122.011C33.0892 129.385 30.9678 137.698 31.9057 146.867C28.0796 146.473 24.7969 145.743 21.1495 147.024C21.2016 161.214 30.2085 172.201 44.0911 171.404C46.4731 171.27 47.7534 176.223 46.2274 176.425L41.5379 177.035C40.6818 177.147 40.9275 181.356 40.9275 181.356L135.582 181.467C137.19 181.467 138.091 180.037 138.039 179.106C137.875 176.29 131.83 177.624 132.471 175.203C133.543 171.188 130.394 168.64 128.927 166.316L128.712 135.836C128.674 130.428 126.426 126.428 122.66 122.83L110.727 111.426C108.405 109.206 104.058 106.606 103.388 103.009C102.361 97.4369 102.145 90.5393 103.567 85.2357C104.534 82.651 106.678 81.042 105.509 78.0625C104.512 75.5298 102.301 75.1202 99.011 74.4572C96.7705 73.9805 97.9093 66.6806 100.902 66.6583L147.835 66.3454C150.068 66.3305 151.988 67.9991 152.003 70.3008L152.085 87.7013C146.137 89.7423 142.341 94.949 142.326 101.37L142.252 143.516C142.252 147.456 144.254 150.525 146.368 153.571L140.696 153.81C139.326 153.869 138.545 155.084 138.522 156.067C138.5 156.849 139.408 158.279 140.77 158.279L175.927 158.369C177.647 158.369 178.659 157.296 178.674 156.059C178.689 154.741 177.699 153.713 175.979 153.683H175.987ZM36.4463 156.477C35.1362 155.218 33.8708 155.151 33.1488 155.709C32.1141 156.514 31.8536 157.728 32.5905 158.942L40.4288 167.017C31.9727 165.505 26.375 158.629 26.0326 150.659C34.4365 150.637 40.9796 154.763 43.2648 162.473L36.4463 156.469V156.477ZM45.1704 141.653C44.8503 140.387 43.6668 139.799 42.647 140.134C41.7835 140.417 40.9573 141.549 41.2327 142.815L43.7412 154.115L36.7143 148.097C34.9353 141.772 36.2305 134.89 39.6844 128.424C49.2273 135.97 54.8473 146.651 49.4282 158.465L45.163 141.653H45.1704ZM127.915 176.901L57.5791 176.79C55.9564 175.605 56.8497 170.309 59.0902 169.452L124.789 169.423C128.004 169.423 129.374 174.912 127.915 176.901ZM124.469 130.741L124.454 164.983L61.1968 164.961L61.2117 130.718L124.469 130.741ZM120.389 126.249L65.5663 126.346L78.2876 114.174C81.3693 111.225 86.4832 108.431 86.6693 103.85L87.3913 86.0253L98.5421 86.0774C98.6388 92.9006 97.9912 98.9788 99.1971 105.348C105.442 113.05 112.588 119.068 120.389 126.249ZM101.393 79.3213V81.556H83.528V79.3213H101.393ZM146.77 62.1889H104.371C104.371 62.1889 98.7058 61.8314 96.6514 64.0586C92.1851 68.8929 95.5497 73.9507 92.5871 74.8818C90.5996 69.0568 93.8823 60.5204 100.708 60.6992H147.105C157.258 60.6992 157.802 69.7644 157.802 69.7644V86.7702L156.469 86.7478L156.209 70.2337C156.112 63.9916 151.549 62.1741 146.77 62.1889ZM155.985 90.8968C161.189 90.4127 166.548 92.3493 168.052 99.5822L146.889 100.118C147.38 94.9267 151.571 91.3065 155.985 90.8968ZM157.809 154.011C152.45 154.138 147.805 150.681 146.941 144.871L167.918 144.931C167.389 150.361 162.93 153.884 157.809 154.003V154.011ZM146.8 141.244L146.971 110.696C149.42 110.197 151.154 110.323 152.755 110.577L153.142 135.515C153.164 136.916 156 139.687 155.189 140.618C152.427 142.011 149.621 141.467 146.8 141.244ZM168.26 140.357C164.717 140.61 162.305 140.849 159.29 139.933C160.615 138.182 162.424 136.782 162.432 134.577L162.476 120.707C162.476 119.5 160.787 118.659 159.878 118.882C159.209 119.046 158.554 119.761 157.965 120.7L158.092 133.698L156.477 133.713L156.335 112.744L157.258 112.193C158.256 111.597 159.075 110.785 159.201 109.936C159.923 104.99 151.14 108.64 146.041 105.474C153.886 104.044 160.891 104.647 168.387 104.714L168.26 140.35V140.357Z" stroke="#8EB122" stroke-width="0.4" mask="url(#path-1-outside-1_2137_881)"/>
<path d="M92.7508 155.031C98.0582 155.031 102.353 150.726 102.353 145.422C102.353 140.119 98.0508 135.813 92.7508 135.813C87.4509 135.813 83.1484 140.119 83.1484 145.422C83.1484 150.726 87.4509 155.031 92.7508 155.031ZM92.8178 140.402C95.6092 140.402 97.8647 142.666 97.8647 145.452C97.8647 148.238 95.6018 150.503 92.8178 150.503C90.0338 150.503 87.771 148.238 87.771 145.452C87.771 142.666 90.0338 140.402 92.8178 140.402Z" stroke="#8EB122" stroke-width="0.4" mask="url(#path-1-outside-1_2137_881)"/>
</svg>
