<svg width="220" height="227" viewBox="0 0 220 227" fill="none" xmlns="http://www.w3.org/2000/svg">
<mask id="path-1-outside-1_2137_883" maskUnits="userSpaceOnUse" x="-0.400024" y="-0.399902" width="220" height="227" fill="black">
<rect fill="white" x="-0.400024" y="-0.399902" width="220" height="227"/>
<path d="M184.296 30.717C136.738 -14.9084 60.9336 -7.62679 22.3628 45.3249C6.85379 66.6187 -0.74382 92.1192 0.795127 119.183C3.25296 162.426 29.4898 200.919 69.8385 217.626C95.3582 228.191 124.404 228.415 150.275 217.343C185.514 202.266 209.561 171.331 216.554 134.357C223.733 96.4152 211.795 57.0961 184.296 30.7096V30.717ZM185.514 187.16C146.771 229.643 83.2408 232.785 40.9945 194.315C3.79831 160.446 -5.84625 105.134 17.8057 60.8113C37.9764 23.0259 78.2803 0.771628 121.319 5.63347C144.821 8.29148 166.837 18.9235 183.153 35.698C223.785 77.489 224.704 144.177 185.514 187.16Z"/>
<path d="M66.1556 85.1876C65.3488 84.8377 64.0339 85.4258 63.1599 86.3937L55.9283 94.405L52.1557 91.2333C51.3862 90.5855 50.3478 91.0695 49.907 91.2109C47.1205 92.1416 50.9454 97.6289 56.5484 100.622L67.2463 88.5976C68.2847 87.4287 67.3733 85.7088 66.1556 85.1801V85.1876Z"/>
<path d="M64.5419 134.23L57.9827 141.661C57.2432 142.502 56.4289 143.359 55.5473 143.157C54.2325 142.852 52.8953 139.576 50.796 139.934C49.5708 140.142 48.9209 141.281 48.9134 141.981C48.8985 143.895 55.3755 150.246 56.7725 148.779L66.7234 138.318C67.844 137.142 67.6497 135.831 67.3135 135.049C67.0222 134.379 65.3488 133.315 64.5419 134.23Z"/>
<path d="M67.1716 110.174C66.4768 109.177 64.9603 108.737 63.6903 110.13L56.0329 118.491L52.5292 115.915C51.5431 115.193 50.2507 115.059 49.4662 115.825C48.9807 116.302 48.3008 117.62 49.1002 118.364L55.9134 124.745L65.9763 114.277C67.2388 112.966 68.3071 111.783 67.1791 110.167L67.1716 110.174Z"/>
<path d="M75.2548 96.1026L92.8929 96.0132C94.9623 96.0058 95.2238 94.0402 94.8278 93.0723C94.4916 92.2458 93.5205 91.6353 92.2953 91.6428L73.671 91.7544C72.416 91.7619 71.9379 93.7051 72.3861 94.5539C72.8194 95.3729 73.7607 96.1174 75.2548 96.11V96.1026Z"/>
<path d="M94.7755 118.119C94.6336 117.106 93.6848 116.213 92.2803 116.205L75.3818 116.146C73.2751 116.146 72.2292 117.136 72.4907 118.93C72.6476 120.04 73.7159 120.68 75.3893 120.665L92.6912 120.523C94.6037 120.509 94.8652 118.804 94.7681 118.104L94.7755 118.119Z"/>
<path d="M85.7211 140.03H75.4042C73.4693 140.038 72.416 140.909 72.4234 142.577C72.4234 143.366 73.417 144.602 74.8364 144.572L86.5429 144.326C88.1192 144.297 88.3508 142.405 88.1939 141.735C87.9997 140.894 87.0883 140.03 85.7137 140.03H85.7211Z"/>
<path d="M138.426 129.182C137.268 126.763 136.118 124.082 136.163 121.32L136.536 101.069C137.911 98.969 141.101 97.2045 140.234 93.7721C139.764 91.8884 139.33 87.9126 135.871 87.9126H109.216C105.503 87.9126 104.838 91.5609 104.547 93.8317C104.159 96.8992 106.191 99.0137 108.223 101.031C107.595 108.268 110.778 117.106 107.685 123.948L87.5589 168.517C85.5418 172.984 85.7809 177.391 88.8737 181.583C91.0626 184.554 94.9698 186.936 99.8406 186.936H144.298C149.229 186.922 153.681 184.911 155.87 181.33C158.089 177.704 159.344 172.932 157.178 168.405L138.426 129.182ZM109.149 96.0877V91.6353L136.043 91.6502V96.1025L109.149 96.0877ZM151.896 178.665C150.828 180.563 147.981 182.477 144.948 182.469L98.3764 182.372C93.3711 182.365 88.0296 176.424 90.1437 171.867L104.248 141.423C111.637 145.696 119.01 145.525 125.442 140.708C126.75 139.725 130.321 139.636 131.075 141.184L144.53 168.77C145.225 170.199 144.739 171.897 144.328 172.425C143.925 172.954 142.789 173.542 141.474 173.535H100.73C100.73 173.535 98.6304 167.712 96.8972 169.336C94.0359 172.031 97.8011 177.429 101.768 177.257H140.72C143.417 177.674 145.621 176.409 146.808 174.733C147.989 173.058 148.9 169.983 147.787 167.712L133.675 138.981C131.464 134.484 123.403 136.941 120.161 139.241C115.843 142.301 110.419 140.79 106.766 137.901C108.97 132.563 112.899 122.772 112.899 122.772L113.176 100.57H131.576L131.748 121.03C131.77 124.082 132.629 127.046 133.922 129.823L153.061 170.869C154.257 173.43 153.143 176.483 151.911 178.672L151.896 178.665Z"/>
<path d="M81.7468 173.535L43.1536 173.483C41.51 173.483 39.6648 172.128 39.6648 170.348L39.6424 64.9957C39.6424 62.4196 41.1589 61.0868 43.4748 61.1017L59.8056 61.206C59.6412 64.7723 59.5292 66.5741 60.336 69.2917L105.055 69.3363C105.996 66.3656 105.668 64.1171 105.593 61.1017L121.969 61.0645C124.053 61.0645 125.577 62.8291 125.569 64.8542L125.51 81.2118C125.51 82.9019 126.526 83.9666 127.84 83.9666C129.133 83.9666 130.059 82.9019 130.059 81.1969L130.022 65.0701C130.014 61.4442 127.519 56.9695 123.59 56.8876L105.16 56.5154C104.786 53.9765 103.725 51.6982 102.239 50.6037C100.139 49.0476 97.6965 49.2635 94.9249 49.3231C93.005 43.3668 87.9773 39.8823 82.2772 40.1429C76.8759 40.3886 72.4085 43.672 70.6753 49.4571C67.6796 49.137 65.1919 49.0774 63.1076 50.6186C61.6209 51.7205 60.5526 53.969 60.2239 56.6419L43.4673 56.7089C39.4631 56.7238 35.1824 59.7913 35.1899 64.3256L35.2497 171.242C35.2497 174.361 39.8291 177.243 42.7651 177.257L81.7468 177.406C83.5397 177.406 84.2195 176.215 84.0328 175.158C83.8759 174.279 83.1662 173.535 81.7468 173.535ZM65.5804 54.7508L74.6721 53.6489C75.3519 48.7275 78.131 45.2207 82.4864 45.042C87.1406 44.8559 90.9356 48.2807 91.4063 53.5149C94.2078 54.8997 97.1437 54.1552 100.251 54.6391C101.387 58.3916 101.29 61.7718 100.655 65.5764L65.1695 65.5913C64.5644 61.8388 64.4896 58.3023 65.5729 54.7508H65.5804Z"/>
<path d="M180.449 127.15C187.561 120.375 188.517 109.184 182.884 100.942C172.754 106.444 168.555 117.113 172.522 127.656C168.869 121.581 163.498 116.607 156.199 116.443C155.287 122.065 156.58 127.202 159.546 131.357C162.228 135.116 166.419 136.821 170.647 138.244L169.116 144.364C167.323 139.1 163.259 135.481 157.842 133.181C156.617 132.659 154.331 132.6 153.106 133.441C151.642 142.465 157.461 150.722 167.158 152.442L158.761 182.566C158.395 183.891 159.381 185.172 160.226 185.529C161.331 185.991 162.586 185.633 163.02 184.13L170.684 157.386C179.238 161.19 189.652 157.267 192.461 147.751C186.358 143.828 179.104 144.877 173.396 149.114C173.396 145.741 174.136 143.314 175.339 140.224C184.894 142.971 194.165 137.097 196.174 127.619C189.092 124.953 182.481 126.837 177.303 131.543C176.564 128.691 179.134 128.393 180.441 127.15H180.449ZM160.203 121.677C164.514 123.673 167.547 126.696 168.406 132.198C163.797 131.133 160.905 126.897 160.203 121.677ZM157.394 138.013C160.958 139.062 164.058 141.877 164.693 146.903C161.144 145.644 158.358 142.718 157.394 138.013ZM186.5 149.91C183.691 153.655 179.261 155.107 175.144 154.087C178.095 150.372 182.077 149.136 186.5 149.91ZM190.033 131.208C187.665 134.565 184.176 136.635 179.462 136.62C181.293 132.898 184.744 130.433 190.033 131.208ZM176.37 124.76C173.59 118.521 175.667 112.155 181.143 107.42C183.37 113.681 182.122 120.412 176.37 124.76Z"/>
</mask>
<path d="M184.296 30.717C136.738 -14.9084 60.9336 -7.62679 22.3628 45.3249C6.85379 66.6187 -0.74382 92.1192 0.795127 119.183C3.25296 162.426 29.4898 200.919 69.8385 217.626C95.3582 228.191 124.404 228.415 150.275 217.343C185.514 202.266 209.561 171.331 216.554 134.357C223.733 96.4152 211.795 57.0961 184.296 30.7096V30.717ZM185.514 187.16C146.771 229.643 83.2408 232.785 40.9945 194.315C3.79831 160.446 -5.84625 105.134 17.8057 60.8113C37.9764 23.0259 78.2803 0.771628 121.319 5.63347C144.821 8.29148 166.837 18.9235 183.153 35.698C223.785 77.489 224.704 144.177 185.514 187.16Z" fill="#98B737"/>
<path d="M66.1556 85.1876C65.3488 84.8377 64.0339 85.4258 63.1599 86.3937L55.9283 94.405L52.1557 91.2333C51.3862 90.5855 50.3478 91.0695 49.907 91.2109C47.1205 92.1416 50.9454 97.6289 56.5484 100.622L67.2463 88.5976C68.2847 87.4287 67.3733 85.7088 66.1556 85.1801V85.1876Z" fill="#98B737"/>
<path d="M64.5419 134.23L57.9827 141.661C57.2432 142.502 56.4289 143.359 55.5473 143.157C54.2325 142.852 52.8953 139.576 50.796 139.934C49.5708 140.142 48.9209 141.281 48.9134 141.981C48.8985 143.895 55.3755 150.246 56.7725 148.779L66.7234 138.318C67.844 137.142 67.6497 135.831 67.3135 135.049C67.0222 134.379 65.3488 133.315 64.5419 134.23Z" fill="#98B737"/>
<path d="M67.1716 110.174C66.4768 109.177 64.9603 108.737 63.6903 110.13L56.0329 118.491L52.5292 115.915C51.5431 115.193 50.2507 115.059 49.4662 115.825C48.9807 116.302 48.3008 117.62 49.1002 118.364L55.9134 124.745L65.9763 114.277C67.2388 112.966 68.3071 111.783 67.1791 110.167L67.1716 110.174Z" fill="#98B737"/>
<path d="M75.2548 96.1026L92.8929 96.0132C94.9623 96.0058 95.2238 94.0402 94.8278 93.0723C94.4916 92.2458 93.5205 91.6353 92.2953 91.6428L73.671 91.7544C72.416 91.7619 71.9379 93.7051 72.3861 94.5539C72.8194 95.3729 73.7607 96.1174 75.2548 96.11V96.1026Z" fill="#98B737"/>
<path d="M94.7755 118.119C94.6336 117.106 93.6848 116.213 92.2803 116.205L75.3818 116.146C73.2751 116.146 72.2292 117.136 72.4907 118.93C72.6476 120.04 73.7159 120.68 75.3893 120.665L92.6912 120.523C94.6037 120.509 94.8652 118.804 94.7681 118.104L94.7755 118.119Z" fill="#98B737"/>
<path d="M85.7211 140.03H75.4042C73.4693 140.038 72.416 140.909 72.4234 142.577C72.4234 143.366 73.417 144.602 74.8364 144.572L86.5429 144.326C88.1192 144.297 88.3508 142.405 88.1939 141.735C87.9997 140.894 87.0883 140.03 85.7137 140.03H85.7211Z" fill="#98B737"/>
<path d="M138.426 129.182C137.268 126.763 136.118 124.082 136.163 121.32L136.536 101.069C137.911 98.969 141.101 97.2045 140.234 93.7721C139.764 91.8884 139.33 87.9126 135.871 87.9126H109.216C105.503 87.9126 104.838 91.5609 104.547 93.8317C104.159 96.8992 106.191 99.0137 108.223 101.031C107.595 108.268 110.778 117.106 107.685 123.948L87.5589 168.517C85.5418 172.984 85.7809 177.391 88.8737 181.583C91.0626 184.554 94.9698 186.936 99.8406 186.936H144.298C149.229 186.922 153.681 184.911 155.87 181.33C158.089 177.704 159.344 172.932 157.178 168.405L138.426 129.182ZM109.149 96.0877V91.6353L136.043 91.6502V96.1025L109.149 96.0877ZM151.896 178.665C150.828 180.563 147.981 182.477 144.948 182.469L98.3764 182.372C93.3711 182.365 88.0296 176.424 90.1437 171.867L104.248 141.423C111.637 145.696 119.01 145.525 125.442 140.708C126.75 139.725 130.321 139.636 131.075 141.184L144.53 168.77C145.225 170.199 144.739 171.897 144.328 172.425C143.925 172.954 142.789 173.542 141.474 173.535H100.73C100.73 173.535 98.6304 167.712 96.8972 169.336C94.0359 172.031 97.8011 177.429 101.768 177.257H140.72C143.417 177.674 145.621 176.409 146.808 174.733C147.989 173.058 148.9 169.983 147.787 167.712L133.675 138.981C131.464 134.484 123.403 136.941 120.161 139.241C115.843 142.301 110.419 140.79 106.766 137.901C108.97 132.563 112.899 122.772 112.899 122.772L113.176 100.57H131.576L131.748 121.03C131.77 124.082 132.629 127.046 133.922 129.823L153.061 170.869C154.257 173.43 153.143 176.483 151.911 178.672L151.896 178.665Z" fill="#98B737"/>
<path d="M81.7468 173.535L43.1536 173.483C41.51 173.483 39.6648 172.128 39.6648 170.348L39.6424 64.9957C39.6424 62.4196 41.1589 61.0868 43.4748 61.1017L59.8056 61.206C59.6412 64.7723 59.5292 66.5741 60.336 69.2917L105.055 69.3363C105.996 66.3656 105.668 64.1171 105.593 61.1017L121.969 61.0645C124.053 61.0645 125.577 62.8291 125.569 64.8542L125.51 81.2118C125.51 82.9019 126.526 83.9666 127.84 83.9666C129.133 83.9666 130.059 82.9019 130.059 81.1969L130.022 65.0701C130.014 61.4442 127.519 56.9695 123.59 56.8876L105.16 56.5154C104.786 53.9765 103.725 51.6982 102.239 50.6037C100.139 49.0476 97.6965 49.2635 94.9249 49.3231C93.005 43.3668 87.9773 39.8823 82.2772 40.1429C76.8759 40.3886 72.4085 43.672 70.6753 49.4571C67.6796 49.137 65.1919 49.0774 63.1076 50.6186C61.6209 51.7205 60.5526 53.969 60.2239 56.6419L43.4673 56.7089C39.4631 56.7238 35.1824 59.7913 35.1899 64.3256L35.2497 171.242C35.2497 174.361 39.8291 177.243 42.7651 177.257L81.7468 177.406C83.5397 177.406 84.2195 176.215 84.0328 175.158C83.8759 174.279 83.1662 173.535 81.7468 173.535ZM65.5804 54.7508L74.6721 53.6489C75.3519 48.7275 78.131 45.2207 82.4864 45.042C87.1406 44.8559 90.9356 48.2807 91.4063 53.5149C94.2078 54.8997 97.1437 54.1552 100.251 54.6391C101.387 58.3916 101.29 61.7718 100.655 65.5764L65.1695 65.5913C64.5644 61.8388 64.4896 58.3023 65.5729 54.7508H65.5804Z" fill="#98B737"/>
<path d="M180.449 127.15C187.561 120.375 188.517 109.184 182.884 100.942C172.754 106.444 168.555 117.113 172.522 127.656C168.869 121.581 163.498 116.607 156.199 116.443C155.287 122.065 156.58 127.202 159.546 131.357C162.228 135.116 166.419 136.821 170.647 138.244L169.116 144.364C167.323 139.1 163.259 135.481 157.842 133.181C156.617 132.659 154.331 132.6 153.106 133.441C151.642 142.465 157.461 150.722 167.158 152.442L158.761 182.566C158.395 183.891 159.381 185.172 160.226 185.529C161.331 185.991 162.586 185.633 163.02 184.13L170.684 157.386C179.238 161.19 189.652 157.267 192.461 147.751C186.358 143.828 179.104 144.877 173.396 149.114C173.396 145.741 174.136 143.314 175.339 140.224C184.894 142.971 194.165 137.097 196.174 127.619C189.092 124.953 182.481 126.837 177.303 131.543C176.564 128.691 179.134 128.393 180.441 127.15H180.449ZM160.203 121.677C164.514 123.673 167.547 126.696 168.406 132.198C163.797 131.133 160.905 126.897 160.203 121.677ZM157.394 138.013C160.958 139.062 164.058 141.877 164.693 146.903C161.144 145.644 158.358 142.718 157.394 138.013ZM186.5 149.91C183.691 153.655 179.261 155.107 175.144 154.087C178.095 150.372 182.077 149.136 186.5 149.91ZM190.033 131.208C187.665 134.565 184.176 136.635 179.462 136.62C181.293 132.898 184.744 130.433 190.033 131.208ZM176.37 124.76C173.59 118.521 175.667 112.155 181.143 107.42C183.37 113.681 182.122 120.412 176.37 124.76Z" fill="#98B737"/>
<path d="M184.296 30.717C136.738 -14.9084 60.9336 -7.62679 22.3628 45.3249C6.85379 66.6187 -0.74382 92.1192 0.795127 119.183C3.25296 162.426 29.4898 200.919 69.8385 217.626C95.3582 228.191 124.404 228.415 150.275 217.343C185.514 202.266 209.561 171.331 216.554 134.357C223.733 96.4152 211.795 57.0961 184.296 30.7096V30.717ZM185.514 187.16C146.771 229.643 83.2408 232.785 40.9945 194.315C3.79831 160.446 -5.84625 105.134 17.8057 60.8113C37.9764 23.0259 78.2803 0.771628 121.319 5.63347C144.821 8.29148 166.837 18.9235 183.153 35.698C223.785 77.489 224.704 144.177 185.514 187.16Z" stroke="#8EB122" stroke-width="1.2" mask="url(#path-1-outside-1_2137_883)"/>
<path d="M66.1556 85.1876C65.3488 84.8377 64.0339 85.4258 63.1599 86.3937L55.9283 94.405L52.1557 91.2333C51.3862 90.5855 50.3478 91.0695 49.907 91.2109C47.1205 92.1416 50.9454 97.6289 56.5484 100.622L67.2463 88.5976C68.2847 87.4287 67.3733 85.7088 66.1556 85.1801V85.1876Z" stroke="#8EB122" stroke-width="1.2" mask="url(#path-1-outside-1_2137_883)"/>
<path d="M64.5419 134.23L57.9827 141.661C57.2432 142.502 56.4289 143.359 55.5473 143.157C54.2325 142.852 52.8953 139.576 50.796 139.934C49.5708 140.142 48.9209 141.281 48.9134 141.981C48.8985 143.895 55.3755 150.246 56.7725 148.779L66.7234 138.318C67.844 137.142 67.6497 135.831 67.3135 135.049C67.0222 134.379 65.3488 133.315 64.5419 134.23Z" stroke="#8EB122" stroke-width="1.2" mask="url(#path-1-outside-1_2137_883)"/>
<path d="M67.1716 110.174C66.4768 109.177 64.9603 108.737 63.6903 110.13L56.0329 118.491L52.5292 115.915C51.5431 115.193 50.2507 115.059 49.4662 115.825C48.9807 116.302 48.3008 117.62 49.1002 118.364L55.9134 124.745L65.9763 114.277C67.2388 112.966 68.3071 111.783 67.1791 110.167L67.1716 110.174Z" stroke="#8EB122" stroke-width="1.2" mask="url(#path-1-outside-1_2137_883)"/>
<path d="M75.2548 96.1026L92.8929 96.0132C94.9623 96.0058 95.2238 94.0402 94.8278 93.0723C94.4916 92.2458 93.5205 91.6353 92.2953 91.6428L73.671 91.7544C72.416 91.7619 71.9379 93.7051 72.3861 94.5539C72.8194 95.3729 73.7607 96.1174 75.2548 96.11V96.1026Z" stroke="#8EB122" stroke-width="1.2" mask="url(#path-1-outside-1_2137_883)"/>
<path d="M94.7755 118.119C94.6336 117.106 93.6848 116.213 92.2803 116.205L75.3818 116.146C73.2751 116.146 72.2292 117.136 72.4907 118.93C72.6476 120.04 73.7159 120.68 75.3893 120.665L92.6912 120.523C94.6037 120.509 94.8652 118.804 94.7681 118.104L94.7755 118.119Z" stroke="#8EB122" stroke-width="1.2" mask="url(#path-1-outside-1_2137_883)"/>
<path d="M85.7211 140.03H75.4042C73.4693 140.038 72.416 140.909 72.4234 142.577C72.4234 143.366 73.417 144.602 74.8364 144.572L86.5429 144.326C88.1192 144.297 88.3508 142.405 88.1939 141.735C87.9997 140.894 87.0883 140.03 85.7137 140.03H85.7211Z" stroke="#8EB122" stroke-width="1.2" mask="url(#path-1-outside-1_2137_883)"/>
<path d="M138.426 129.182C137.268 126.763 136.118 124.082 136.163 121.32L136.536 101.069C137.911 98.969 141.101 97.2045 140.234 93.7721C139.764 91.8884 139.33 87.9126 135.871 87.9126H109.216C105.503 87.9126 104.838 91.5609 104.547 93.8317C104.159 96.8992 106.191 99.0137 108.223 101.031C107.595 108.268 110.778 117.106 107.685 123.948L87.5589 168.517C85.5418 172.984 85.7809 177.391 88.8737 181.583C91.0626 184.554 94.9698 186.936 99.8406 186.936H144.298C149.229 186.922 153.681 184.911 155.87 181.33C158.089 177.704 159.344 172.932 157.178 168.405L138.426 129.182ZM109.149 96.0877V91.6353L136.043 91.6502V96.1025L109.149 96.0877ZM151.896 178.665C150.828 180.563 147.981 182.477 144.948 182.469L98.3764 182.372C93.3711 182.365 88.0296 176.424 90.1437 171.867L104.248 141.423C111.637 145.696 119.01 145.525 125.442 140.708C126.75 139.725 130.321 139.636 131.075 141.184L144.53 168.77C145.225 170.199 144.739 171.897 144.328 172.425C143.925 172.954 142.789 173.542 141.474 173.535H100.73C100.73 173.535 98.6304 167.712 96.8972 169.336C94.0359 172.031 97.8011 177.429 101.768 177.257H140.72C143.417 177.674 145.621 176.409 146.808 174.733C147.989 173.058 148.9 169.983 147.787 167.712L133.675 138.981C131.464 134.484 123.403 136.941 120.161 139.241C115.843 142.301 110.419 140.79 106.766 137.901C108.97 132.563 112.899 122.772 112.899 122.772L113.176 100.57H131.576L131.748 121.03C131.77 124.082 132.629 127.046 133.922 129.823L153.061 170.869C154.257 173.43 153.143 176.483 151.911 178.672L151.896 178.665Z" stroke="#8EB122" stroke-width="1.2" mask="url(#path-1-outside-1_2137_883)"/>
<path d="M81.7468 173.535L43.1536 173.483C41.51 173.483 39.6648 172.128 39.6648 170.348L39.6424 64.9957C39.6424 62.4196 41.1589 61.0868 43.4748 61.1017L59.8056 61.206C59.6412 64.7723 59.5292 66.5741 60.336 69.2917L105.055 69.3363C105.996 66.3656 105.668 64.1171 105.593 61.1017L121.969 61.0645C124.053 61.0645 125.577 62.8291 125.569 64.8542L125.51 81.2118C125.51 82.9019 126.526 83.9666 127.84 83.9666C129.133 83.9666 130.059 82.9019 130.059 81.1969L130.022 65.0701C130.014 61.4442 127.519 56.9695 123.59 56.8876L105.16 56.5154C104.786 53.9765 103.725 51.6982 102.239 50.6037C100.139 49.0476 97.6965 49.2635 94.9249 49.3231C93.005 43.3668 87.9773 39.8823 82.2772 40.1429C76.8759 40.3886 72.4085 43.672 70.6753 49.4571C67.6796 49.137 65.1919 49.0774 63.1076 50.6186C61.6209 51.7205 60.5526 53.969 60.2239 56.6419L43.4673 56.7089C39.4631 56.7238 35.1824 59.7913 35.1899 64.3256L35.2497 171.242C35.2497 174.361 39.8291 177.243 42.7651 177.257L81.7468 177.406C83.5397 177.406 84.2195 176.215 84.0328 175.158C83.8759 174.279 83.1662 173.535 81.7468 173.535ZM65.5804 54.7508L74.6721 53.6489C75.3519 48.7275 78.131 45.2207 82.4864 45.042C87.1406 44.8559 90.9356 48.2807 91.4063 53.5149C94.2078 54.8997 97.1437 54.1552 100.251 54.6391C101.387 58.3916 101.29 61.7718 100.655 65.5764L65.1695 65.5913C64.5644 61.8388 64.4896 58.3023 65.5729 54.7508H65.5804Z" stroke="#8EB122" stroke-width="1.2" mask="url(#path-1-outside-1_2137_883)"/>
<path d="M180.449 127.15C187.561 120.375 188.517 109.184 182.884 100.942C172.754 106.444 168.555 117.113 172.522 127.656C168.869 121.581 163.498 116.607 156.199 116.443C155.287 122.065 156.58 127.202 159.546 131.357C162.228 135.116 166.419 136.821 170.647 138.244L169.116 144.364C167.323 139.1 163.259 135.481 157.842 133.181C156.617 132.659 154.331 132.6 153.106 133.441C151.642 142.465 157.461 150.722 167.158 152.442L158.761 182.566C158.395 183.891 159.381 185.172 160.226 185.529C161.331 185.991 162.586 185.633 163.02 184.13L170.684 157.386C179.238 161.19 189.652 157.267 192.461 147.751C186.358 143.828 179.104 144.877 173.396 149.114C173.396 145.741 174.136 143.314 175.339 140.224C184.894 142.971 194.165 137.097 196.174 127.619C189.092 124.953 182.481 126.837 177.303 131.543C176.564 128.691 179.134 128.393 180.441 127.15H180.449ZM160.203 121.677C164.514 123.673 167.547 126.696 168.406 132.198C163.797 131.133 160.905 126.897 160.203 121.677ZM157.394 138.013C160.958 139.062 164.058 141.877 164.693 146.903C161.144 145.644 158.358 142.718 157.394 138.013ZM186.5 149.91C183.691 153.655 179.261 155.107 175.144 154.087C178.095 150.372 182.077 149.136 186.5 149.91ZM190.033 131.208C187.665 134.565 184.176 136.635 179.462 136.62C181.293 132.898 184.744 130.433 190.033 131.208ZM176.37 124.76C173.59 118.521 175.667 112.155 181.143 107.42C183.37 113.681 182.122 120.412 176.37 124.76Z" stroke="#8EB122" stroke-width="1.2" mask="url(#path-1-outside-1_2137_883)"/>
</svg>
