<svg width="1332" height="1389" viewBox="0 0 1332 1389" fill="none" xmlns="http://www.w3.org/2000/svg">
<path d="M715.73 0.0110416C722.493 0.0134078 729.257 0.0120595 736.02 0.00734296C752.262 0.00521917 768.503 0.0408964 784.744 0.0945866C803.69 0.155076 822.636 0.166911 841.582 0.176401C875.352 0.194567 909.122 0.24984 942.892 0.329384C975.641 0.406443 1008.39 0.465443 1041.14 0.5008C1044.18 0.504094 1044.18 0.504094 1047.29 0.507454C1057.46 0.518365 1067.64 0.528927 1077.82 0.539316C1161.88 0.625568 1245.94 0.779438 1330 0.959948C1330 48.7708 1330 96.5816 1330 145.841C1310.29 145.897 1290.58 145.952 1270.27 146.009C1207 146.19 1143.74 146.397 1080.48 146.622C1070.63 146.656 1060.78 146.691 1050.93 146.726C1048.97 146.732 1047.01 146.739 1044.99 146.746C1013.37 146.857 981.74 146.948 950.112 147.032C917.594 147.119 885.076 147.227 852.559 147.354C834.321 147.424 816.084 147.484 797.847 147.522C780.64 147.558 763.433 147.62 746.227 147.701C739.951 147.726 733.676 147.742 727.4 147.748C678.401 147.801 629.482 149.381 581.549 160.469C577.544 161.375 577.544 161.375 573.459 162.3C491.495 181.463 417.597 218.715 352.033 271.219C350.334 272.577 348.635 273.935 346.885 275.333C247.41 355.685 184.456 470.575 156.997 594.416C156.497 596.579 155.997 598.741 155.483 600.97C139.698 672.052 143.423 755.228 159.783 825.669C160.365 828.188 160.948 830.707 161.548 833.303C182.941 922.224 227.601 1002.7 287.95 1070.85C290.166 1073.41 292.382 1075.97 294.665 1078.6C307.358 1093.06 320.459 1106.02 335.316 1118.22C336.67 1119.37 338.025 1120.53 339.42 1121.72C433.536 1201.94 556.11 1251.95 680.449 1252.48C683.376 1252.51 686.303 1252.53 689.318 1252.55C695.648 1252.6 701.978 1252.64 708.308 1252.68C718.425 1252.74 728.54 1252.81 738.656 1252.89C760.238 1253.06 781.82 1253.2 803.402 1253.35C831.613 1253.54 859.824 1253.74 888.034 1253.96C891.428 1253.98 894.822 1254.01 898.319 1254.04C951.226 1254.46 1004.08 1255.42 1056.95 1257.53C963.506 1353.02 799.095 1386.67 671.056 1389C486.631 1386.91 319.962 1310.89 191.146 1180.88C176.913 1166.27 163.777 1151.17 151.424 1134.94C150.007 1133.11 148.591 1131.29 147.131 1129.41C34.7681 984.59 -16.0761 800.501 4.46154 618.306C16.083 527.079 44.3431 441.456 87.341 360.377C89.0506 357.152 90.7602 353.927 92.5217 350.604C113.679 312.224 139.525 276.514 168.142 243.358C169.973 241.217 171.805 239.076 173.692 236.871C202.477 204.068 233.524 172.101 268.446 145.841C270.203 144.504 271.96 143.166 273.771 141.789C403.882 43.2221 553.566 -0.801684 715.73 0.0110416Z" fill="url(#paint0_radial_2134_192)"/>
<path d="M1080.99 273.057C1108.27 273.09 1135.54 273.104 1162.82 273.118C1218.55 273.146 1274.27 273.197 1330 273.258C1330 321.097 1330 368.936 1330 418.224C1238.66 420.214 1147.4 421.261 1056.05 421.481C1041.94 421.516 1027.84 421.56 1013.73 421.603C967.059 421.741 920.391 421.879 873.723 421.92C847.574 421.944 821.425 422.007 795.276 422.114C781.58 422.168 767.884 422.204 754.188 422.19C741.403 422.177 728.62 422.216 715.836 422.293C711.196 422.312 706.556 422.313 701.917 422.292C660.669 422.129 621.065 427.834 583.775 446.625C581.568 447.706 579.361 448.788 577.087 449.903C557.843 459.631 541.209 471.154 524.739 485.131C522.382 487.007 520.026 488.883 517.599 490.816C464.944 534.772 433.437 604.364 427.216 671.914C422.839 746.196 444.888 819.065 494.089 875.424C496.298 878.232 496.298 878.232 498.551 881.097C537.277 929.1 601.386 960.733 661.802 968.173C677.697 969.844 693.362 970.63 709.338 970.65C712.992 970.671 712.992 970.671 716.72 970.692C724.797 970.734 732.874 970.758 740.951 970.781C746.774 970.808 752.598 970.836 758.422 970.865C774.171 970.94 789.92 970.999 805.669 971.055C822.15 971.116 838.632 971.192 855.113 971.267C886.296 971.406 917.478 971.531 948.661 971.651C984.173 971.789 1019.68 971.942 1055.2 972.097C1128.22 972.414 1201.25 972.711 1274.27 972.997C1271.54 987.415 1266.35 998.939 1259.82 1012.03C1258.61 1014.44 1257.41 1016.86 1256.17 1019.34C1241.42 1048.09 1223.57 1075.1 1204.61 1101.24C1203.1 1103.63 1201.59 1106.02 1200.04 1108.48C1192.77 1115.88 1189.13 1116.82 1178.93 1117C1176.06 1116.94 1176.06 1116.94 1173.13 1116.89C1171.07 1116.9 1169.02 1116.92 1166.9 1116.94C1160.01 1116.97 1153.12 1116.91 1146.23 1116.85C1141.3 1116.85 1136.36 1116.86 1131.42 1116.88C1117.98 1116.91 1104.55 1116.85 1091.12 1116.77C1077.02 1116.71 1062.93 1116.71 1048.83 1116.71C1025.11 1116.7 1001.4 1116.63 977.68 1116.53C950.378 1116.42 923.077 1116.37 895.774 1116.36C866.609 1116.35 837.445 1116.3 808.28 1116.23C799.937 1116.21 791.594 1116.2 783.251 1116.19C770.034 1116.17 756.818 1116.13 743.601 1116.06C738.793 1116.04 733.985 1116.03 729.177 1116.03C686.474 1116 643.14 1114.07 601.538 1103.68C599.142 1103.09 596.746 1102.5 594.277 1101.89C520.376 1082.78 456.749 1045.2 402.138 992.511C399.969 990.517 397.8 988.522 395.564 986.468C326.117 920.804 283.406 817.393 279.187 722.568C276.075 600.148 311.658 491.456 396.566 401.497C401.153 396.795 405.794 392.144 410.498 387.558C411.859 386.038 413.22 384.518 414.623 382.952C471.233 321.812 566.75 279.231 649.962 275.698C660.359 275.455 670.755 275.297 681.154 275.17C685.179 275.113 689.203 275.054 693.228 274.996C704.22 274.84 715.212 274.703 726.204 274.572C733.201 274.488 740.198 274.4 747.195 274.311C858.46 272.911 969.723 272.924 1080.99 273.057Z" fill="url(#paint1_radial_2134_192)"/>
<path d="M702.053 552.008C704.739 552.006 707.426 552.003 710.194 552.001C719.203 551.996 728.212 552.012 737.221 552.027C743.677 552.028 750.132 552.027 756.587 552.026C774.122 552.025 791.657 552.041 809.192 552.061C827.513 552.078 845.834 552.08 864.156 552.083C894.91 552.09 925.665 552.108 956.419 552.133C988.095 552.159 1019.77 552.178 1051.45 552.19C1054.37 552.191 1054.37 552.191 1057.36 552.192C1067.16 552.196 1076.96 552.199 1086.76 552.203C1168.02 552.232 1249.28 552.281 1330.54 552.343C1330.8 577.573 1331 602.803 1331.12 628.034C1331.17 639.759 1331.25 651.483 1331.38 663.207C1332.89 804.084 1332.89 804.084 1316.6 836.652C1237.46 836.907 1158.33 837.104 1079.19 837.221C1069.83 837.235 1060.46 837.249 1051.1 837.264C1049.24 837.267 1047.37 837.27 1045.45 837.273C1015.36 837.321 985.258 837.409 955.16 837.512C924.229 837.617 893.299 837.677 862.368 837.701C845.014 837.715 827.661 837.749 810.308 837.831C793.945 837.907 777.583 837.93 761.221 837.913C755.243 837.916 749.266 837.938 743.289 837.981C689.78 838.347 640.354 833.796 599.205 795.364C568.7 762.327 558.513 723.509 560.171 679.439C562.172 648.992 573.044 626.092 591.888 602.515C594.016 599.583 596.143 596.651 598.334 593.631C627.154 563.47 661.375 551.876 702.053 552.008Z" fill="url(#paint2_radial_2134_192)"/>
<defs>
<radialGradient id="paint0_radial_2134_192" cx="0" cy="0" r="1" gradientUnits="userSpaceOnUse" gradientTransform="translate(284 695) scale(1015 1140.33)">
<stop stop-color="#F7E52E"/>
<stop offset="0.25704" stop-color="#F7E52E"/>
<stop offset="1" stop-color="#628E10"/>
</radialGradient>
<radialGradient id="paint1_radial_2134_192" cx="0" cy="0" r="1" gradientUnits="userSpaceOnUse" gradientTransform="translate(284 695) scale(1015 1140.33)">
<stop stop-color="#F7E52E"/>
<stop offset="0.25704" stop-color="#F7E52E"/>
<stop offset="1" stop-color="#628E10"/>
</radialGradient>
<radialGradient id="paint2_radial_2134_192" cx="0" cy="0" r="1" gradientUnits="userSpaceOnUse" gradientTransform="translate(284 695) scale(1015 1140.33)">
<stop stop-color="#F7E52E"/>
<stop offset="0.25704" stop-color="#F7E52E"/>
<stop offset="1" stop-color="#628E10"/>
</radialGradient>
</defs>
</svg>
