<svg width="472" height="473" viewBox="0 0 472 473" fill="none" xmlns="http://www.w3.org/2000/svg">
<path d="M461.042 186.239V27C461.042 17.6112 453.465 10 444.076 10H257.47C50.4219 10 10.0001 171.751 10 239C9.99992 308.256 47.0129 462.855 231.468 462.855C314.118 462.855 461.042 424.5 461.042 186.239Z" fill="#F2F5EB" stroke="#8EB122" stroke-width="20"/>
<path d="M246.11 131.192C244.83 131.192 243.646 130.984 242.558 130.568C241.486 130.136 240.55 129.536 239.75 128.768C238.966 127.984 238.35 127.072 237.902 126.032C237.454 124.992 237.23 123.848 237.23 122.6C237.23 121.352 237.454 120.208 237.902 119.168C238.35 118.128 238.974 117.224 239.774 116.456C240.574 115.672 241.51 115.072 242.582 114.656C243.67 114.224 244.854 114.008 246.134 114.008C247.43 114.008 248.622 114.232 249.71 114.68C250.814 115.112 251.75 115.76 252.518 116.624L250.958 118.136C250.318 117.464 249.598 116.968 248.798 116.648C247.998 116.312 247.142 116.144 246.23 116.144C245.286 116.144 244.406 116.304 243.59 116.624C242.79 116.944 242.094 117.392 241.502 117.968C240.91 118.544 240.446 119.232 240.11 120.032C239.79 120.816 239.63 121.672 239.63 122.6C239.63 123.528 239.79 124.392 240.11 125.192C240.446 125.976 240.91 126.656 241.502 127.232C242.094 127.808 242.79 128.256 243.59 128.576C244.406 128.896 245.286 129.056 246.23 129.056C247.142 129.056 247.998 128.896 248.798 128.576C249.598 128.24 250.318 127.728 250.958 127.04L252.518 128.552C251.75 129.416 250.814 130.072 249.71 130.52C248.622 130.968 247.422 131.192 246.11 131.192ZM262.668 131.192C260.46 131.192 258.724 130.56 257.46 129.296C256.196 128.032 255.564 126.184 255.564 123.752V114.2H257.964V123.656C257.964 125.528 258.372 126.896 259.188 127.76C260.02 128.624 261.188 129.056 262.692 129.056C264.212 129.056 265.38 128.624 266.196 127.76C267.028 126.896 267.444 125.528 267.444 123.656V114.2H269.772V123.752C269.772 126.184 269.14 128.032 267.876 129.296C266.628 130.56 264.892 131.192 262.668 131.192ZM274.692 131V114.2H276.66L284.196 126.896H283.14L290.58 114.2H292.548L292.572 131H290.268L290.244 117.824H290.796L284.172 128.96H283.068L276.396 117.824H276.996V131H274.692ZM297.614 131V114.2H300.014V131H297.614ZM305.043 131V114.2H307.011L318.123 128H317.091V114.2H319.491V131H317.523L306.411 117.2H307.443V131H305.043ZM223.926 160V143.2H235.782V145.288H226.326V160H223.926ZM226.086 153.208V151.144H234.75V153.208H226.086ZM239.161 160V143.2H251.017V145.288H241.561V157.912H251.353V160H239.161ZM241.345 152.488V150.448H249.985V152.488H241.345ZM255.239 160V143.2H257.207L268.319 157H267.287V143.2H269.687V160H267.719L256.607 146.2H257.639V160H255.239ZM274.715 160V143.2H276.683L287.795 157H286.763V143.2H289.163V160H287.195L276.083 146.2H277.115V160H274.715ZM294.192 160V143.2H306.048V145.288H296.592V157.912H306.384V160H294.192ZM296.376 152.488V150.448H305.016V152.488H296.376ZM310.27 160V143.2H312.67V157.912H321.766V160H310.27ZM169.364 189V172.2H181.22V174.288H171.764V189H169.364ZM171.524 182.208V180.144H180.188V182.208H171.524ZM184.598 189V172.2H196.454V174.288H186.998V186.912H196.79V189H184.598ZM186.782 181.488V179.448H195.422V181.488H186.782ZM200.676 189V172.2H202.644L213.756 186H212.724V172.2H215.124V189H213.156L202.044 175.2H203.076V189H200.676ZM227.113 189.192C224.905 189.192 223.169 188.56 221.905 187.296C220.641 186.032 220.009 184.184 220.009 181.752V172.2H222.409V181.656C222.409 183.528 222.817 184.896 223.633 185.76C224.465 186.624 225.633 187.056 227.137 187.056C228.657 187.056 229.825 186.624 230.641 185.76C231.473 184.896 231.889 183.528 231.889 181.656V172.2H234.217V181.752C234.217 184.184 233.585 186.032 232.321 187.296C231.073 188.56 229.337 189.192 227.113 189.192ZM246.721 189.192C245.425 189.192 244.233 188.984 243.145 188.568C242.057 188.136 241.113 187.536 240.313 186.768C239.513 185.984 238.889 185.072 238.441 184.032C237.993 182.992 237.769 181.848 237.769 180.6C237.769 179.352 237.993 178.208 238.441 177.168C238.889 176.128 239.513 175.224 240.313 174.456C241.129 173.672 242.081 173.072 243.169 172.656C244.257 172.224 245.457 172.008 246.769 172.008C248.097 172.008 249.313 172.224 250.417 172.656C251.521 173.088 252.457 173.736 253.225 174.6L251.737 176.088C251.049 175.416 250.297 174.928 249.481 174.624C248.681 174.304 247.809 174.144 246.865 174.144C245.905 174.144 245.009 174.304 244.177 174.624C243.361 174.944 242.649 175.392 242.041 175.968C241.449 176.544 240.985 177.232 240.649 178.032C240.329 178.816 240.169 179.672 240.169 180.6C240.169 181.512 240.329 182.368 240.649 183.168C240.985 183.952 241.449 184.64 242.041 185.232C242.649 185.808 243.361 186.256 244.177 186.576C244.993 186.896 245.881 187.056 246.841 187.056C247.737 187.056 248.593 186.92 249.409 186.648C250.241 186.36 251.009 185.888 251.713 185.232L253.081 187.056C252.249 187.76 251.273 188.296 250.153 188.664C249.049 189.016 247.905 189.192 246.721 189.192ZM253.081 187.056L250.777 186.744V180.504H253.081V187.056ZM257.676 189V172.2H264.228C266.404 172.2 268.116 172.72 269.364 173.76C270.612 174.784 271.236 176.216 271.236 178.056C271.236 179.272 270.956 180.32 270.396 181.2C269.836 182.064 269.036 182.728 267.996 183.192C266.956 183.656 265.7 183.888 264.228 183.888H258.996L260.076 182.784V189H257.676ZM268.908 189L264.636 182.904H267.204L271.524 189H268.908ZM260.076 183.024L258.996 181.848H264.156C265.692 181.848 266.852 181.52 267.636 180.864C268.436 180.192 268.836 179.256 268.836 178.056C268.836 176.856 268.436 175.928 267.636 175.272C266.852 174.616 265.692 174.288 264.156 174.288H258.996L260.076 173.088V183.024ZM275.114 189V172.2H286.97V174.288H277.514V186.912H287.306V189H275.114ZM277.298 181.488V179.448H285.938V181.488H277.298ZM291.192 189V172.2H303.048V174.288H293.592V186.912H303.384V189H291.192ZM293.376 181.488V179.448H302.016V181.488H293.376ZM309.382 184.944L309.262 182.016L318.79 172.2H321.526L314.158 179.976L312.814 181.464L309.382 184.944ZM307.27 189V172.2H309.67V189H307.27ZM319.174 189L312.286 180.984L313.894 179.208L321.982 189H319.174ZM239.76 218.192C238.464 218.192 237.272 217.984 236.184 217.568C235.096 217.136 234.152 216.536 233.352 215.768C232.552 214.984 231.928 214.072 231.48 213.032C231.032 211.992 230.808 210.848 230.808 209.6C230.808 208.352 231.032 207.208 231.48 206.168C231.928 205.128 232.552 204.224 233.352 203.456C234.168 202.672 235.12 202.072 236.208 201.656C237.296 201.224 238.496 201.008 239.808 201.008C241.136 201.008 242.352 201.224 243.456 201.656C244.56 202.088 245.496 202.736 246.264 203.6L244.776 205.088C244.088 204.416 243.336 203.928 242.52 203.624C241.72 203.304 240.848 203.144 239.904 203.144C238.944 203.144 238.048 203.304 237.216 203.624C236.4 203.944 235.688 204.392 235.08 204.968C234.488 205.544 234.024 206.232 233.688 207.032C233.368 207.816 233.208 208.672 233.208 209.6C233.208 210.512 233.368 211.368 233.688 212.168C234.024 212.952 234.488 213.64 235.08 214.232C235.688 214.808 236.4 215.256 237.216 215.576C238.032 215.896 238.92 216.056 239.88 216.056C240.776 216.056 241.632 215.92 242.448 215.648C243.28 215.36 244.048 214.888 244.752 214.232L246.12 216.056C245.288 216.76 244.312 217.296 243.192 217.664C242.088 218.016 240.944 218.192 239.76 218.192ZM246.12 216.056L243.816 215.744V209.504H246.12V216.056ZM248.171 218L255.779 201.2H258.155L265.787 218H263.267L256.475 202.544H257.435L250.643 218H248.171ZM251.411 213.8L252.059 211.88H261.515L262.211 213.8H251.411ZM268.293 218V201.2H274.845C277.021 201.2 278.733 201.72 279.981 202.76C281.229 203.784 281.853 205.216 281.853 207.056C281.853 208.272 281.573 209.32 281.013 210.2C280.453 211.064 279.653 211.728 278.613 212.192C277.573 212.656 276.317 212.888 274.845 212.888H269.613L270.693 211.784V218H268.293ZM279.525 218L275.253 211.904H277.821L282.141 218H279.525ZM270.693 212.024L269.613 210.848H274.773C276.309 210.848 277.469 210.52 278.253 209.864C279.053 209.192 279.453 208.256 279.453 207.056C279.453 205.856 279.053 204.928 278.253 204.272C277.469 203.616 276.309 203.288 274.773 203.288H269.613L270.693 202.088V212.024ZM285.731 218V201.2H288.131V215.912H297.227V218H285.731ZM299.981 218V201.2H302.381V218H299.981ZM314.923 218.192C313.643 218.192 312.459 217.984 311.371 217.568C310.299 217.136 309.363 216.536 308.563 215.768C307.779 214.984 307.163 214.072 306.715 213.032C306.267 211.992 306.043 210.848 306.043 209.6C306.043 208.352 306.267 207.208 306.715 206.168C307.163 205.128 307.787 204.224 308.587 203.456C309.387 202.672 310.323 202.072 311.395 201.656C312.483 201.224 313.667 201.008 314.947 201.008C316.243 201.008 317.435 201.232 318.523 201.68C319.627 202.112 320.563 202.76 321.331 203.624L319.771 205.136C319.131 204.464 318.411 203.968 317.611 203.648C316.811 203.312 315.955 203.144 315.043 203.144C314.099 203.144 313.219 203.304 312.403 203.624C311.603 203.944 310.907 204.392 310.315 204.968C309.723 205.544 309.259 206.232 308.923 207.032C308.603 207.816 308.443 208.672 308.443 209.6C308.443 210.528 308.603 211.392 308.923 212.192C309.259 212.976 309.723 213.656 310.315 214.232C310.907 214.808 311.603 215.256 312.403 215.576C313.219 215.896 314.099 216.056 315.043 216.056C315.955 216.056 316.811 215.896 317.611 215.576C318.411 215.24 319.131 214.728 319.771 214.04L321.331 215.552C320.563 216.416 319.627 217.072 318.523 217.52C317.435 217.968 316.235 218.192 314.923 218.192ZM234.604 247.192C233.308 247.192 232.116 246.984 231.028 246.568C229.94 246.136 228.996 245.536 228.196 244.768C227.396 243.984 226.772 243.072 226.324 242.032C225.876 240.992 225.652 239.848 225.652 238.6C225.652 237.352 225.876 236.208 226.324 235.168C226.772 234.128 227.396 233.224 228.196 232.456C229.012 231.672 229.964 231.072 231.052 230.656C232.14 230.224 233.34 230.008 234.652 230.008C235.98 230.008 237.196 230.224 238.3 230.656C239.404 231.088 240.34 231.736 241.108 232.6L239.62 234.088C238.932 233.416 238.18 232.928 237.364 232.624C236.564 232.304 235.692 232.144 234.748 232.144C233.788 232.144 232.892 232.304 232.06 232.624C231.244 232.944 230.532 233.392 229.924 233.968C229.332 234.544 228.868 235.232 228.532 236.032C228.212 236.816 228.052 237.672 228.052 238.6C228.052 239.512 228.212 240.368 228.532 241.168C228.868 241.952 229.332 242.64 229.924 243.232C230.532 243.808 231.244 244.256 232.06 244.576C232.876 244.896 233.764 245.056 234.724 245.056C235.62 245.056 236.476 244.92 237.292 244.648C238.124 244.36 238.892 243.888 239.596 243.232L240.964 245.056C240.132 245.76 239.156 246.296 238.036 246.664C236.932 247.016 235.788 247.192 234.604 247.192ZM240.964 245.056L238.66 244.744V238.504H240.964V245.056ZM245.559 247V230.2H247.959V247H245.559ZM252.989 247V230.2H254.957L266.069 244H265.037V230.2H267.437V247H265.469L254.357 233.2H255.389V247H252.989ZM280.049 247.192C278.753 247.192 277.561 246.984 276.473 246.568C275.385 246.136 274.441 245.536 273.641 244.768C272.841 243.984 272.217 243.072 271.769 242.032C271.321 240.992 271.097 239.848 271.097 238.6C271.097 237.352 271.321 236.208 271.769 235.168C272.217 234.128 272.841 233.224 273.641 232.456C274.457 231.672 275.409 231.072 276.497 230.656C277.585 230.224 278.785 230.008 280.097 230.008C281.425 230.008 282.641 230.224 283.745 230.656C284.849 231.088 285.785 231.736 286.553 232.6L285.065 234.088C284.377 233.416 283.625 232.928 282.809 232.624C282.009 232.304 281.137 232.144 280.193 232.144C279.233 232.144 278.337 232.304 277.505 232.624C276.689 232.944 275.977 233.392 275.369 233.968C274.777 234.544 274.313 235.232 273.977 236.032C273.657 236.816 273.497 237.672 273.497 238.6C273.497 239.512 273.657 240.368 273.977 241.168C274.313 241.952 274.777 242.64 275.369 243.232C275.977 243.808 276.689 244.256 277.505 244.576C278.321 244.896 279.209 245.056 280.169 245.056C281.065 245.056 281.921 244.92 282.737 244.648C283.569 244.36 284.337 243.888 285.041 243.232L286.409 245.056C285.577 245.76 284.601 246.296 283.481 246.664C282.377 247.016 281.233 247.192 280.049 247.192ZM286.409 245.056L284.105 244.744V238.504H286.409V245.056ZM291.004 247V230.2H302.86V232.288H293.404V244.912H303.196V247H291.004ZM293.188 239.488V237.448H301.828V239.488H293.188ZM307.083 247V230.2H313.635C315.811 230.2 317.523 230.72 318.771 231.76C320.019 232.784 320.643 234.216 320.643 236.056C320.643 237.272 320.363 238.32 319.803 239.2C319.243 240.064 318.443 240.728 317.403 241.192C316.363 241.656 315.107 241.888 313.635 241.888H308.403L309.483 240.784V247H307.083ZM318.315 247L314.043 240.904H316.611L320.931 247H318.315ZM309.483 241.024L308.403 239.848H313.563C315.099 239.848 316.259 239.52 317.043 238.864C317.843 238.192 318.243 237.256 318.243 236.056C318.243 234.856 317.843 233.928 317.043 233.272C316.259 232.616 315.099 232.288 313.563 232.288H308.403L309.483 231.088V241.024ZM251.067 276V259.2H253.035L260.571 271.896H259.515L266.955 259.2H268.923L268.947 276H266.643L266.619 262.824H267.171L260.547 273.96H259.443L252.771 262.824H253.371V276H251.067ZM271.445 276L279.053 259.2H281.429L289.061 276H286.541L279.749 260.544H280.709L273.917 276H271.445ZM274.685 271.8L275.333 269.88H284.789L285.485 271.8H274.685ZM298.845 276.192C297.565 276.192 296.381 275.984 295.293 275.568C294.221 275.136 293.285 274.536 292.485 273.768C291.701 272.984 291.085 272.072 290.637 271.032C290.189 269.992 289.965 268.848 289.965 267.6C289.965 266.352 290.189 265.208 290.637 264.168C291.085 263.128 291.709 262.224 292.509 261.456C293.309 260.672 294.245 260.072 295.317 259.656C296.405 259.224 297.589 259.008 298.869 259.008C300.165 259.008 301.357 259.232 302.445 259.68C303.549 260.112 304.485 260.76 305.253 261.624L303.693 263.136C303.053 262.464 302.333 261.968 301.533 261.648C300.733 261.312 299.877 261.144 298.965 261.144C298.021 261.144 297.141 261.304 296.325 261.624C295.525 261.944 294.829 262.392 294.237 262.968C293.645 263.544 293.181 264.232 292.845 265.032C292.525 265.816 292.365 266.672 292.365 267.6C292.365 268.528 292.525 269.392 292.845 270.192C293.181 270.976 293.645 271.656 294.237 272.232C294.829 272.808 295.525 273.256 296.325 273.576C297.141 273.896 298.021 274.056 298.965 274.056C299.877 274.056 300.733 273.896 301.533 273.576C302.333 273.24 303.053 272.728 303.693 272.04L305.253 273.552C304.485 274.416 303.549 275.072 302.445 275.52C301.357 275.968 300.157 276.192 298.845 276.192ZM308.442 276V259.2H320.298V261.288H310.842V273.912H320.634V276H308.442ZM310.626 268.488V266.448H319.266V268.488H310.626ZM214.762 305V288.2H216.73L227.842 302H226.81V288.2H229.21V305H227.242L216.13 291.2H217.162V305H214.762ZM241.199 305.192C238.991 305.192 237.255 304.56 235.991 303.296C234.727 302.032 234.095 300.184 234.095 297.752V288.2H236.495V297.656C236.495 299.528 236.903 300.896 237.719 301.76C238.551 302.624 239.719 303.056 241.223 303.056C242.743 303.056 243.911 302.624 244.727 301.76C245.559 300.896 245.975 299.528 245.975 297.656V288.2H248.303V297.752C248.303 300.184 247.671 302.032 246.407 303.296C245.159 304.56 243.423 305.192 241.199 305.192ZM256.254 305V290.288H250.494V288.2H264.39V290.288H258.63V305H256.254ZM267.004 305V288.2H268.972L276.508 300.896H275.452L282.892 288.2H284.86L284.884 305H282.58L282.556 291.824H283.108L276.484 302.96H275.38L268.708 291.824H269.308V305H267.004ZM289.926 305V288.2H301.782V290.288H292.326V302.912H302.118V305H289.926ZM292.11 297.488V295.448H300.75V297.488H292.11ZM313.565 305.192C312.269 305.192 311.077 304.984 309.989 304.568C308.901 304.136 307.957 303.536 307.157 302.768C306.357 301.984 305.733 301.072 305.285 300.032C304.837 298.992 304.613 297.848 304.613 296.6C304.613 295.352 304.837 294.208 305.285 293.168C305.733 292.128 306.357 291.224 307.157 290.456C307.973 289.672 308.925 289.072 310.013 288.656C311.101 288.224 312.301 288.008 313.613 288.008C314.941 288.008 316.157 288.224 317.261 288.656C318.365 289.088 319.301 289.736 320.069 290.6L318.581 292.088C317.893 291.416 317.141 290.928 316.325 290.624C315.525 290.304 314.653 290.144 313.709 290.144C312.749 290.144 311.853 290.304 311.021 290.624C310.205 290.944 309.493 291.392 308.885 291.968C308.293 292.544 307.829 293.232 307.493 294.032C307.173 294.816 307.013 295.672 307.013 296.6C307.013 297.512 307.173 298.368 307.493 299.168C307.829 299.952 308.293 300.64 308.885 301.232C309.493 301.808 310.205 302.256 311.021 302.576C311.837 302.896 312.725 303.056 313.685 303.056C314.581 303.056 315.437 302.92 316.253 302.648C317.085 302.36 317.853 301.888 318.557 301.232L319.925 303.056C319.093 303.76 318.117 304.296 316.997 304.664C315.893 305.016 314.749 305.192 313.565 305.192ZM319.925 303.056L317.621 302.744V296.504H319.925V303.056Z" fill="black"/>
</svg>
